<svg id="Ebene_2" data-name="Ebene 2" xmlns="http://www.w3.org/2000/svg" xmlns:xlink="http://www.w3.org/1999/xlink" width="210mm" height="297mm" viewBox="0 0 595.28 841.89">
  <defs>
    <style>
      .cls-1, .cls-23, .cls-31, .cls-36, .cls-37, .cls-39 {
        fill: none;
      }

      .cls-2 {
        fill: #3b7696;
      }

      .cls-3 {
        fill: #1e4c66;
      }

      .cls-4 {
        fill: #dfe8ea;
      }

      .cls-5 {
        fill: #cebb4e;
      }

      .cls-6 {
        fill: #e4edef;
      }

      .cls-7 {
        fill: #32966d;
      }

      .cls-8 {
        fill: #355d7c;
      }

      .cls-9 {
        fill: #cedadd;
      }

      .cls-10, .cls-12 {
        fill: #725238;
      }

      .cls-11 {
        fill: #f7c6ad;
      }

      .cls-12 {
        opacity: 0.22;
      }

      .cls-13 {
        fill: #fff;
      }

      .cls-14 {
        fill: #914052;
      }

      .cls-15 {
        fill: #e07782;
      }

      .cls-16 {
        fill: #2f506d;
      }

      .cls-17 {
        fill: #396584;
      }

      .cls-18 {
        fill: #eab9a0;
      }

      .cls-19 {
        clip-path: url(#clip-path);
      }

      .cls-20 {
        fill: #231f20;
      }

      .cls-21 {
        opacity: 0.74;
      }

      .cls-22 {
        opacity: 0.56;
      }

      .cls-23, .cls-31, .cls-36, .cls-37, .cls-39 {
        stroke: #231f20;
        stroke-miterlimit: 10;
      }

      .cls-23 {
        stroke-width: 2.07px;
      }

      .cls-24 {
        opacity: 0.8;
      }

      .cls-25 {
        fill: #563d27;
      }

      .cls-26 {
        clip-path: url(#clip-path-2);
      }

      .cls-27 {
        fill: #41a2ce;
      }

      .cls-28 {
        clip-path: url(#clip-path-3);
      }

      .cls-29 {
        opacity: 0.5;
      }

      .cls-30 {
        opacity: 0.61;
      }

      .cls-31 {
        stroke-width: 2.76px;
      }

      .cls-32 {
        opacity: 0.6;
      }

      .cls-33 {
        opacity: 0.88;
      }

      .cls-34 {
        opacity: 0.55;
      }

      .cls-35 {
        opacity: 0.59;
      }

      .cls-36 {
        stroke-width: 2.73px;
      }

      .cls-37 {
        stroke-width: 3.45px;
      }

      .cls-38 {
        opacity: 0.65;
      }

      .cls-39 {
        stroke-width: 1.38px;
      }

      .cls-40 {
        fill: #eaeaea;
      }

      .cls-41 {
        opacity: 0.77;
      }

      .cls-42 {
        opacity: 0.83;
      }
    </style>
    <clipPath id="clip-path">
      <path class="cls-1" d="M257,43.11s9.29-8.32,13.6-10,15-3.13,20.24-2.95,21.64,3,21.64,3L296.67,71.31,242.28,60.17Z"/>
    </clipPath>
    <clipPath id="clip-path-2">
      <path class="cls-1" d="M286.1,163s4.66,2.06,12.56,1.57A56.16,56.16,0,0,0,312.37,162s1.34-6.22-.69-10.82-6.18-8.93-12.72-8.58-11,2.57-12.43,7S286.1,163,286.1,163Z"/>
    </clipPath>
    <clipPath id="clip-path-3">
      <path class="cls-1" d="M212.92,156.69s3.85,2.69,11.05,3.57a49.9,49.9,0,0,0,12.79,0s2.28-5.53,1.24-10.14-4-9.31-10-10.08-10.34.54-12.41,4.36S212.92,156.69,212.92,156.69Z"/>
    </clipPath>
  </defs>
  <path class="cls-2" d="M211.61,517.25a125.47,125.47,0,0,0,16.42-6.7c7-3.65,18.9-17.05,18.9-17.05s21.51,7,42.74,7.92,55.25-3.66,55.25-3.66,12.66,15.84,19.93,18.88,22.72,7,22.72,7-12.58,26.8-13.21,31.67-4.62,73.09-4,77,1.72,19.8,1.08,25.89a39.08,39.08,0,0,1-2.48,10.36s-.09,77,1.08,85.27S372,778,372,778s-9.73,3.66-17.92,3.66-24-1.53-24-1.53-4.48-73.39-5.07-78.27-2.83-39.89-2.83-39.89-3-3.66-2.7-6.1.64-6.09.64-6.09-2.41-3.35-2.4-5.17,2.17-8.84,2.17-8.84l-14.41-90.14-18.8-1.53s-3.85,57-5.14,71.35.17,25-.14,27.41-1,9.14-1,9.14l-1.24,5.18s2.1,4.56,1.79,6.7-1.26,9.44-1.26,9.44l3.63,105.29s-5.79,4.26-18.23,4a68.28,68.28,0,0,1-23.34-5.18s-.43-34.11-1.61-40.5-5.92-73.62-5.92-73.62-6.33-7-5.39-13.71,1.31-18,1.63-21.32-6.06-79-6.06-79L217,529.43Z"/>
  <path class="cls-3" d="M184.56,347.31s11.51,4.57,17.57,5.48,23.35,2.44,23.35,2.44l-1.29,76.14-2.27,27.71L227,479.49s7.34-2.26,10.91,3.35,5.72,9.74,5.72,9.74,30.59,9.75,44.25,9.44,52.51-3,52.51-3,8.25-10.36,14-10.66,13.95,1.22,13.95,1.22l10.5-34.42s-1.92-40.5-2.49-47.2,1.16-49,1.16-49,7.89-1.22,18.22-3,22.79-7.31,22.79-7.31-11.53-59.69-26.36-67-50.59-16.75-50.59-16.75a56.54,56.54,0,0,1-26.21,23.45c-18.55,8.22-28.28,11.87-28.28,11.87S269.21,289.44,266.49,287s-11.17-11-11.17-11-20-3.35-30.64-.3-18.56,9.14-22.84,16.14S184.56,347.31,184.56,347.31Z"/>
  <path class="cls-4" d="M241,327.6l2.86,40.24,25.43,2.62.36,54.83,39.3,1.88L308.57,371l30-1.9.69-38.37s-34.41-.44-50.51.27S241,327.6,241,327.6Z"/>
  <path class="cls-5" d="M246.66,334.07,247.5,362l26.77,2.63L276,420.35l27.25.35,1-55.73,28.62-1-.38-28.79s-32.2,1.41-44.27,1.25S246.66,334.07,246.66,334.07Z"/>
  <path class="cls-6" d="M331,788.57a84.42,84.42,0,0,0-2.45,10.28c-.35,3.31.75,9.94.75,9.94s2.26,2.51,12.95,4.34,20.68,5.48,30.35,6.74,23.77.8,27.19.11,9.7-4.45,9.7-4.45-2-11-4.37-13.71-8.5-6.85-8.5-6.85Z"/>
  <path class="cls-6" d="M202.6,797.44c-5.2,5.83-8,18.28-8,18.28s15.15,4.26,25.78,3,38.25-4,45.24-5.18l22.78-4s-.28-6.1-.86-10-4.49-12.8-4.49-12.8l-14.59,4.88-48.24-1.22S205,794.7,202.6,797.44Z"/>
  <path class="cls-7" d="M209.28,794.7s7,1.83,9.68,6.4a134.57,134.57,0,0,1,6.31,13.4s18.23-4.57,26.12-5.18,20.95-2.13,20.95-2.13.34-7.31,2.78-10.36,7.93-8.22,7.93-8.22l-3-8.53s-9.42,2.74-14.88,2.44-15.77-2.13-15.77-2.13-8.22,6.09-14.6,7.92S209.28,794.7,209.28,794.7Z"/>
  <path class="cls-7" d="M332.85,781.61l-1.26,8.22s4.53,4.57,4.82,7.92,2.38,9.74,2.38,9.74a137.32,137.32,0,0,1,16.36,3.35c9.1,2.44,22.74,4.88,22.74,4.88s.36-11,6.14-14.32,14.29-5.17,14.29-5.17-14.22-5.38-20.29-7.92-11.49-8.84-11.49-8.84-12.15,2.75-16.4,2.75S332.85,781.61,332.85,781.61Z"/>
  <path class="cls-8" d="M211.26,105.72S190.74,94,188.72,84,184,65,192.58,59.2s19.16-4.36,22.49-4.06,17.87,3.7,22.09,6,15.68,9.8,15.68,9.8l-31.12,33.77Z"/>
  <path class="cls-9" d="M211.38,101.41s-28.52-16.2-19.68-35.34c8-17.2,39.44-6.68,39.44-6.68l20.38,10.52-36.3,34Z"/>
  <path class="cls-10" d="M336.29,257l5,2.21L343,246.76l2.43,11.61,4.1-12.42.71,9.15L353.4,246c.63-1.82-.3-8.84-.3-8.84s.79,4.58,2.81,7.35a22.11,22.11,0,0,0,4.06,4.33l-3.52-16.2,5.1,11,2.67-14.28a11.84,11.84,0,0,0,4,6.16c3.2,2.49,8,1.65,8,1.65s-7.71-12.33-8.33-16.28c-1-6.41-.13-15.77-.13-15.77a16.19,16.19,0,0,1,3,7.13,69.91,69.91,0,0,0,1.75,8.41s2.93-7.11,3.33-12c.61-7.3-2.71-18.28-2.71-18.28a21.16,21.16,0,0,0,4.86,8.6c3.77,4,12.11,2,12.11,2s-5.83-4.66-7.84-7.74a53.83,53.83,0,0,1-4-8.28s4.29,7.37,7.81,8.95a14.37,14.37,0,0,0,6.49,1.32s-8.42-8.05-11.85-14.2-6.29-10.76-6.29-10.76l-33.79,1L331,242.31Z"/>
  <path class="cls-11" d="M250.4,70.2s-31.62,32.86-39.69,48.72-13,33.61-16.56,52.75-6,46.93.67,55.72,15.09,18.05,19.5,25,9.59,20.26,24.58,21.86,31.37,1.86,56.6-7.79,43.87-20.34,50-30.29,8.08-39.59,8.08-39.59l-.31-51.18L338.79,97.16s-24,8.31-36.24,4S258.54,72.61,250.4,70.2Z"/>
  <path class="cls-12" d="M194.15,171.67s1.63,23.75,10.36,27.23c7.32,2.93,14.6-6.36,39.77-8.51,33.13-2.84,51.6,8.47,66.39,10.17,21.49,2.47,29.83-9.89,32.41-17.16a32.38,32.38,0,0,0,2-9.41l7.4,8.64s3.54,42.4-7.94,54.71S288,269.66,278.55,272s-42.31,6-50.64-2-9.49-17.82-13.08-20-21.54-21.65-22.65-27.16S194.15,171.67,194.15,171.67Z"/>
  <path class="cls-11" d="M215.11,206.68c-.61,3,11,27.59,19.33,33.81s24.89,6.79,35.57,3.91,25.72-11.17,29.51-18.42,8.5-14.8,7.93-16.33-12-7.8-23.54-6.77c-5.74.52-31.17,3.78-44.48,2.05S215.79,203.34,215.11,206.68Z"/>
  <path class="cls-13" d="M223.77,136.26c8.65.14,11.12,1.78,14.26,4.11a34.81,34.81,0,0,1,6,6.26l-4.82,13a59,59,0,0,1-16.85.65c-8.63-1-14.9-6.17-16-9.62s.62-7.76,4.09-10.44S223.77,136.26,223.77,136.26Z"/>
  <path class="cls-13" d="M295.32,164.57c11.95.19,18.84-2.8,22.41-5,3.23-2,3.44-5,3.12-7.5-.39-3.09-6.6-11.18-19.56-12.07s-17.94,3.72-21.4,5.95S275,153.86,276,156.16C277.67,159.84,281,164.35,295.32,164.57Z"/>
  <path class="cls-13" d="M221.45,208.31s2.53,9.78,5.23,11.35,16.71,6.05,29.16,5.63,35.25-2.49,37.4-3.68S302,209.56,302,209.56s-11.81-1.09-19.73.31a234.15,234.15,0,0,1-34,2.81C235.76,212.79,221.45,208.31,221.45,208.31Z"/>
  <path class="cls-14" d="M227,220.81s5.83,14.48,22.19,15.65,30.38-5,35.43-7,8.58-7.86,8.58-7.86-26.71,3.93-40.59,3.48A102.66,102.66,0,0,1,227,220.81Z"/>
  <path class="cls-15" d="M284.9,228.49s-12.92-6-24.81-3.44-17.48,8.87-17.48,8.87,11.47,2.92,21.2,1.85S284.9,228.49,284.9,228.49Z"/>
  <path class="cls-10" d="M238.7,82.59s-16.27,8.72-23.93,15.87-14.06,19.4-14.06,19.4-1.41,1.76-8.92,2.51a41.52,41.52,0,0,1-13.14-.68s1.44,5.57,6.84,7.22,12.14-1.2,12.14-1.2A34.57,34.57,0,0,1,192.54,138c-3.81,5.29-7.79,5.77-14.4,6.11a31.37,31.37,0,0,1-11.56-1.51s4.24,6.62,11.4,8.14,15.72-2.16,15.72-2.16-1.83,9.06-10.26,10.45a67.55,67.55,0,0,1-16.28.53s1.71,4.66,8.65,6.17S192,163.4,192,163.4a15.73,15.73,0,0,0-5.71,11.6,27.76,27.76,0,0,0,3,13.19l3.79-8.72s8-32.76,11.21-42.89,5.55-20.3,8.59-23.57S238.7,82.59,238.7,82.59Z"/>
  <path class="cls-10" d="M334.83,97.86s-.25,12.19,1.7,20.14,8.07,18.09,8.32,20.84.86,16.77,1.36,21.65-2.95,26.15-2.95,26.15l4.33-5.11,3.8,6.15s-1.19-15.86-.17-21,3.31-14.57,3.31-14.57,6.69,12.29,12.59,18.78,15.46,11.21,18.48,11.25a37,37,0,0,0,7.57-1.1,17.1,17.1,0,0,0,9.05-.16,22.33,22.33,0,0,0,7.63-3.84s-12.68.11-16.58-.87-10.59-13.26-10.59-13.26,3.55,3.1,12.32,2.32,10.35-4.41,11.29-5.91a51.78,51.78,0,0,0,2.53-5.75s-6.14,5.08-8.57,5.65-12.32-2.32-12.32-2.32-5.64-19-10.9-27.59S361.78,108,361.78,108L344,94.05Z"/>
  <path class="cls-16" d="M243.24,60.08s40.43,6.59,53.43,11.23S326.77,84.86,337,90.39s25.32,16.88,25.32,16.88,2.76-33.18-2.32-40.82-22.95-26.88-32.36-29.71c-12.28-3.68-39.79-10.25-55.64-3.32S243.24,60.08,243.24,60.08Z"/>
  <path class="cls-11" d="M231.67,183.49s-3.69,17.3,4.17,18.64,36.81-12.21,36.81-12.21Z"/>
  <path class="cls-17" d="M230.21,58.91s10.86,5.53,19,10.14,40,29.4,46.86,31.3,15.75,2.82,26.07,2.26,22.12-7.92,22.12-7.92S322.7,78,297.89,71.43,230.21,58.91,230.21,58.91Z"/>
  <path class="cls-11" d="M352.12,201.51s2.59,6.44,7.61,5.83,7.95-9.92,8.69-12.65,3.34-18.91,3.34-18.91-6-6-8.67-10-7.66-14.74-7.66-14.74l-2.54,2s-1.82,10.94-1.73,17.34S350.34,199.52,352.12,201.51Z"/>
  <path class="cls-18" d="M257.45,274.29l-1.15,2.52s20.92,23.44,31.84,23.3,31.21-15.16,37.78-18.74,14.41-14.16,14.41-14.16-2.67-6.44-3.19-10.12-.22-14.23-.22-14.23-19.07,15-53.37,27.17C271.56,274.29,257.45,274.29,257.45,274.29Z"/>
  <g class="cls-19">
    <path class="cls-13" d="M276.9,20.12l.1,0a0,0,0,0,0,0,0,2.22,2.22,0,0,1,.55.65c.12.2.24.4.37.6a17.9,17.9,0,0,0,7.73,6.21c1.07.5,2.18.94,3.34,1.35,1.37.48,2.77.9,4.19,1.29,2.07.55,4.12,1,6.14,1.44l.28.05,0,.13a11.13,11.13,0,0,0,2.47,4.52,12.2,12.2,0,0,0,2.15,2l.07.07-.2,0c-.32,0-.64,0-1,0a2.43,2.43,0,0,0-1.12.31,2.12,2.12,0,0,0-.61.53c-2.21,3-4.74,6.35-7.51,10.13-.17.22-.32.46-.47.69a1.9,1.9,0,0,0-.19,1.82c.16.35.36.68.54,1l.08.13-.73,0a29.53,29.53,0,0,0-6.22.23,23.72,23.72,0,0,0-9.38,3.44l-.15.08-.11-.11a10.26,10.26,0,0,0-2.6-2,13.65,13.65,0,0,0-4.95-1.56,16,16,0,0,0-3.34-.08A14,14,0,0,0,262,54.16a20.83,20.83,0,0,0-4.82,2.92,32,32,0,0,0-4.5,4.37c-.06.08-.13.15-.22.25a1.86,1.86,0,0,1,.16-.59,12.29,12.29,0,0,1,1-1.85,25.67,25.67,0,0,1,3.62-4.48,19.58,19.58,0,0,1,7.11-4.61,18.25,18.25,0,0,1,5.59-1.09,1.31,1.31,0,0,0,.7-.18l.41-.2a10,10,0,0,0,3.23-2.4,12.78,12.78,0,0,0,1-1.43s0,0,0-.06a16.51,16.51,0,0,1-2.8-.33l-.22.23-.21.23a18.73,18.73,0,0,1-6.24,4,20.38,20.38,0,0,1-2.19.77,2.09,2.09,0,0,1-.83.12c-.35,0-.37-.28,0-.6a2.73,2.73,0,0,1,.55-.39l.72-.4a10.82,10.82,0,0,0,3.61-3.19q.25-.37.48-.75c1-1.67,2-3.3,3-4.87,0-.06.07-.13.12-.21l-.82-.08a9.65,9.65,0,0,0-3.66.49q-.31.11-.63.18a1.87,1.87,0,0,1-.66,0c-.35,0-.45-.24-.25-.55a2.44,2.44,0,0,1,.34-.39,6,6,0,0,1,1.13-.86,11.11,11.11,0,0,1,5.81-1.5l.4,0A14.76,14.76,0,0,0,274,35.11l-.21,0a9,9,0,0,0-1.3-.19,8.78,8.78,0,0,0-3,.28,5.09,5.09,0,0,1-.68.12,1.23,1.23,0,0,1-.58-.05.28.28,0,0,1-.19-.44,1.23,1.23,0,0,1,.17-.25,4.44,4.44,0,0,1,1.13-.86,8.72,8.72,0,0,1,1.92-.79,10.51,10.51,0,0,1,4.29-.37l.25,0,0,0,.06-.07a7,7,0,0,1,2.91-2,15.51,15.51,0,0,1,1.55-.48c.86-.2,1.73-.37,2.6-.52l.22,0-.22-.14a17.31,17.31,0,0,1-3.43-2.53A9.35,9.35,0,0,1,277,23a6.62,6.62,0,0,1-.35-2.28,1.84,1.84,0,0,1,.06-.4C276.68,20.19,276.76,20.13,276.9,20.12ZM287,50c1.34-1.89,2.62-3.68,3.85-5.39l-.15-.08a17.8,17.8,0,0,0-2.63-1,23.35,23.35,0,0,0-2.92-.66,19.19,19.19,0,0,0-2.53-.26h-1.09l-.12.17c-.3.45-.61.91-.93,1.37a11.11,11.11,0,0,1-3.89,3.3,24.74,24.74,0,0,1-3.69,1.65.5.5,0,0,0-.23.1,18.9,18.9,0,0,1,3.7.84,18.37,18.37,0,0,1,3.17,1.43,27.09,27.09,0,0,1,3.69-1.05A20.88,20.88,0,0,1,287,50Zm7.9-11,.08-.1L297,36c.05-.06.05-.12,0-.2-.44-.63-.88-1.27-1.3-1.92a.37.37,0,0,0-.26-.15l-2-.45c-.87-.2-1.73-.44-2.58-.7a.63.63,0,0,0-.33,0,5.3,5.3,0,0,0-1.71.57,6,6,0,0,0-1.81,1.5c-.35.43-.66.88-1,1.32l-.1.14a19.31,19.31,0,0,0,3.75,1.59A34.27,34.27,0,0,0,294.86,39Zm-12.41,2.22a22.92,22.92,0,0,1,9.23,2.12c.13-.11,2.34-3.16,2.34-3.24a37.18,37.18,0,0,1-4.74-1,20.1,20.1,0,0,1-4.2-1.66C284.21,38.63,283.34,39.9,282.45,41.21Zm.69-7.61-.09-.06a7.57,7.57,0,0,0-2.31-.86.21.21,0,0,0-.2.06,5.46,5.46,0,0,0-1,1.07q-2.88,4.3-6,9.2l-.1.17a14.72,14.72,0,0,0,2.73.3l.14-.21q3-4.5,5.66-8.44a4.66,4.66,0,0,1,.84-.95Zm1.23-.71.11,0a9.64,9.64,0,0,1,1.8-.55c.72-.14,1.44-.24,2.16-.35l.24,0-.15-.07c-1-.36-2-.74-2.91-1.16a.53.53,0,0,0-.33,0,10.21,10.21,0,0,0-3.15,1l-.12.08A12.49,12.49,0,0,1,284.37,32.89Z"/>
  </g>
  <path class="cls-11" d="M187,349.44s-5.7,46.14-2.61,65.79,25.11,74,25.55,75.83,4.43,23.76,4.43,23.76,10.48-1.22,13.68-4.27,9.6-8.53,9.6-8.53,4.07,6.4,7.7,7.31,9.55,2.29,9.11-.45-8.23-10.33-9.94-14.17-5.41-11.42-10.4-13.7-7.13-1.52-7.13-1.52-13.5-58.33-13-67.92,6.21-56.65,6.21-56.65Z"/>
  <path class="cls-11" d="M381.75,356.74s5.47,40.67,5.42,50.26-18.85,82.54-18.85,82.54-11.74-4.39-15.47-1.22-22.4,19.19-18.77,21.93,10.92.91,13.21-.92a38.31,38.31,0,0,0,4.57-4.56s7.7,7.3,14.06,10.5,16.81,5.48,16.81,5.48l4.2-21s32.69-73.09,32.29-82.69-.74-34.72-.72-38.37S415,350.8,415,350.8s-15.34,2.74-19.28,3.65S381.75,356.74,381.75,356.74Z"/>
  <path class="cls-20" d="M251.69,71.82a233.32,233.32,0,0,0-33,36.49c-1.17,1.67-2.31,3.37-3.44,5.07l-1.61,2.6c-.54.87-1.08,1.73-1.52,2.61a73.55,73.55,0,0,0-4.65,11.17c-2.63,7.75-4.62,15.73-6.84,23.73-.54,2-1.19,4.06-1.81,6a54.93,54.93,0,0,0-1.34,5.81c-.73,4-1.29,8.06-1.77,12.13-.94,8.14-1.55,16.34-1.68,24.51-.06,4.08,0,8.17.33,12.18a50.75,50.75,0,0,0,.8,5.88,24.22,24.22,0,0,0,1.75,5.43c3.24,7.11,8.39,13.39,14.06,19.32,1.44,1.49,2.9,2.93,4.33,4.62a13.9,13.9,0,0,1,1.92,2.92c.5,1,.91,1.95,1.33,2.88a37.29,37.29,0,0,0,2.77,5.25,23.76,23.76,0,0,0,3.72,4.4,25.69,25.69,0,0,0,4.68,3.38,24.76,24.76,0,0,0,5.32,2.24,55.2,55.2,0,0,0,11.78,1.91,129.74,129.74,0,0,0,24.34-1c1-.13,2.07-.27,3-.42s1.88-.41,2.84-.66c1.93-.52,3.86-1.14,5.79-1.8,3.85-1.3,7.68-2.76,11.48-4.31,7.57-3.11,15.08-6.46,22.34-10.23s14.45-7.78,20.67-12.82a33.32,33.32,0,0,0,4.24-4.05,17.26,17.26,0,0,0,1.69-2.3c.55-.83,1.07-1.69,1.58-2.55a54.14,54.14,0,0,0,4.77-11,64.58,64.58,0,0,0,2.63-24l1.9-.29a59.4,59.4,0,0,1,.47,12.63,62.4,62.4,0,0,1-2.05,12.48,57.43,57.43,0,0,1-4.66,11.86c-.52.93-1,1.88-1.6,2.78a20.46,20.46,0,0,1-1.93,2.72,38.41,38.41,0,0,1-4.61,4.59,90.27,90.27,0,0,1-10.28,7.41c-3.55,2.23-7.18,4.31-10.86,6.27-7.39,3.87-14.94,7.4-22.67,10.51-3.87,1.56-7.77,3-11.74,4.36-2,.66-4,1.28-6.08,1.82-1,.27-2.08.52-3.2.71s-2.11.29-3.17.42a133.51,133.51,0,0,1-25.14.77A56.78,56.78,0,0,1,234,274a28.46,28.46,0,0,1-6-2.66,29.35,29.35,0,0,1-5.27-4,32.49,32.49,0,0,1-7.18-10.82c-.42-1-.83-1.9-1.26-2.75a8.73,8.73,0,0,0-1.49-2.22c-1.29-1.44-2.79-2.87-4.27-4.32a106.33,106.33,0,0,1-8.72-9.12,45.82,45.82,0,0,1-6.85-10.94,31.6,31.6,0,0,1-1.18-3.1c-.18-.56-.34-1.1-.46-1.64s-.26-1.09-.35-1.62a54.89,54.89,0,0,1-.81-6.4c-.31-4.23-.34-8.42-.24-12.6.21-8.35.91-16.65,1.93-24.91.52-4.14,1.13-8.26,1.92-12.38a58.35,58.35,0,0,1,1.51-6.25c.66-2,1.27-3.86,1.85-5.86,2.32-7.88,4.44-15.93,7.24-23.8a77,77,0,0,1,5-11.62c.51-1,1.07-1.84,1.64-2.72l1.68-2.65c1.18-1.72,2.37-3.44,3.59-5.14A208.11,208.11,0,0,1,232.3,87.44c5.74-6,11.67-11.81,18-17.26Z"/>
  <path class="cls-20" d="M249.45,131a14.48,14.48,0,0,1,1.31,4.55,11.58,11.58,0,0,1-.68,4.87,35,35,0,0,1-1.86,4.27c-.68,1.38-1.36,2.69-2,4-2.48,5.37-4.56,11-6.61,16.61q-1.51,4.23-2.95,8.51c-1,2.87-2,5.69-2.89,8.52a52.21,52.21,0,0,0-2.07,8.51,18.73,18.73,0,0,0-.16,4.14,6,6,0,0,0,1.14,3.31,3.26,3.26,0,0,0,.54.51,4.69,4.69,0,0,0,.74.43,11.8,11.8,0,0,0,5.76,1.28,20.28,20.28,0,0,0,8-2.26c2.62-1.23,5.18-2.74,7.93-4.11a30.31,30.31,0,0,1,9.13-3.15,72.76,72.76,0,0,0,8.56-1.55,10.77,10.77,0,0,0,3.44-1.52,5.66,5.66,0,0,0,2-2.76,4.65,4.65,0,0,0-.41-3.32,12,12,0,0,0-2.36-3.36,12.79,12.79,0,0,0-7.62-4,12.43,12.43,0,0,1,8.84,2.53,13.71,13.71,0,0,1,3.41,3.54,7.25,7.25,0,0,1,1.25,5.35,9.83,9.83,0,0,1-.92,2.58,10.21,10.21,0,0,1-.76,1.21,10.75,10.75,0,0,1-1,1,14.28,14.28,0,0,1-4.53,2.62,34.39,34.39,0,0,1-4.57,1.38c-1.51.37-3,.68-4.51,1a47.27,47.27,0,0,0-7.86,2.85c-2.72,1.16-5.53,2.39-8.5,3.41a30.48,30.48,0,0,1-9.48,1.86,16,16,0,0,1-5-.77,14,14,0,0,1-2.32-1,6.91,6.91,0,0,1-1.2-.72,6.32,6.32,0,0,1-1.08-1,9.18,9.18,0,0,1-1.87-5.07,21.83,21.83,0,0,1,.17-4.87,57.48,57.48,0,0,1,2.07-9.07c.88-2.94,1.88-5.78,2.8-8.63s1.92-5.74,2.92-8.59a144.07,144.07,0,0,1,6.93-16.89c.69-1.39,1.43-2.73,2.13-4s1.37-2.63,2-3.91a16.36,16.36,0,0,0,1.43-3.86C249.09,134,249.18,132.51,249.45,131Z"/>
  <path class="cls-20" d="M231.61,173.05a24.4,24.4,0,0,0-3.51,4.18,12.56,12.56,0,0,0-1.24,2.34,5,5,0,0,0-.42,2.35,7.52,7.52,0,0,0,.65,2.36,16.84,16.84,0,0,0,1.19,2.31,32.93,32.93,0,0,0,3.08,4.25l-2.76,2.07a35.49,35.49,0,0,1-2.66-5.16A19.85,19.85,0,0,1,225,185a9.26,9.26,0,0,1-.34-3.05,6.65,6.65,0,0,1,1-2.93,13.34,13.34,0,0,1,1.72-2.31,24.48,24.48,0,0,1,4.2-3.69Z"/>
  <path class="cls-20" d="M216,207.92c3.86-.76,7.88-.13,11.61.54s7.39,1.5,11.1,1.93a88.15,88.15,0,0,0,11.14.55c3.76,0,7.51-.29,11.28-.52,7.53-.54,15-1.53,22.68-2.33,1.92-.19,3.87-.3,5.83-.35a51.61,51.61,0,0,1,5.85.31,49.66,49.66,0,0,1,11.33,2.5c-3.86,0-7.66-.05-11.42.08a95.06,95.06,0,0,0-11.16,1l-11.31,1.69c-3.8.56-7.63,1-11.48,1.29s-7.72.44-11.59.43a73.85,73.85,0,0,1-11.68-1,75.74,75.74,0,0,1-11.3-2.75C223.22,210.16,219.79,208.83,216,207.92Z"/>
  <path class="cls-20" d="M222.31,211.06a41,41,0,0,0,5.29,11.11,27.33,27.33,0,0,0,8.54,8.26,23.89,23.89,0,0,0,5.37,2.26c.48.12,1,.25,1.42.35l1.44.26,3,.36a69.56,69.56,0,0,0,12.16.16A74.38,74.38,0,0,0,271.6,232a59.24,59.24,0,0,0,11.5-3.82c3.59-1.65,6.67-4.34,9.66-7.19s5.79-5.92,8.57-9A83,83,0,0,1,294,222.18a56,56,0,0,1-4.39,4.61,26.62,26.62,0,0,1-5.27,3.81,62.46,62.46,0,0,1-24.54,6.66,68.15,68.15,0,0,1-12.77-.35l-3.17-.49-1.62-.36c-.53-.14-1.06-.31-1.59-.46a22.9,22.9,0,0,1-5.95-2.88,27.19,27.19,0,0,1-8.55-9.66A34.26,34.26,0,0,1,222.31,211.06Z"/>
  <g class="cls-21">
    <path class="cls-20" d="M291,184.3a53.82,53.82,0,0,1,11.37,7.56,40,40,0,0,1,4.92,4.91A19,19,0,0,1,311,203.1a15.65,15.65,0,0,1,.62,3.69,25,25,0,0,1,0,3.57,42,42,0,0,1-1.1,6.85A58.43,58.43,0,0,1,305.81,230c.76-4.47,1.54-8.88,2.06-13.28.25-2.19.43-4.38.47-6.53a20.62,20.62,0,0,0-.67-6.1,18.76,18.76,0,0,0-3-5.28,65.22,65.22,0,0,0-4.23-5C297.4,190.63,294.19,187.52,291,184.3Z"/>
  </g>
  <g class="cls-22">
    <path class="cls-20" d="M319.6,190.34a39.12,39.12,0,0,1,6.95,18.27,26.06,26.06,0,0,1-.09,5.08,38.23,38.23,0,0,1-.88,4.87,25.9,25.9,0,0,1-4,9,85.74,85.74,0,0,0,1.34-9.44c.14-1.55.24-3.11.29-4.66l.05-1.16,0-1.12c0-.74-.08-1.5-.11-2.25a83.66,83.66,0,0,0-1.49-9.17C321,196.65,320.24,193.56,319.6,190.34Z"/>
  </g>
  <g class="cls-21">
    <path class="cls-20" d="M218.29,185.11c-1,3.26-2.22,6.4-3.26,9.56a79.55,79.55,0,0,0-2.73,9.4,47.13,47.13,0,0,0-.68,9.58c0,3.28.25,6.6.41,10a25.79,25.79,0,0,1-2-4.76,34.16,34.16,0,0,1-1.22-5,28.08,28.08,0,0,1,.14-10.53,40,40,0,0,1,3.68-9.72A46.35,46.35,0,0,1,218.29,185.11Z"/>
  </g>
  <g class="cls-22">
    <path class="cls-20" d="M202,190.33c.2,2.6.31,5.06.43,7.52s.29,4.9.4,7.36.23,4.92.27,7.4a74.66,74.66,0,0,1-.2,7.59,30.91,30.91,0,0,1-2.5-7.26,46,46,0,0,1-1-7.56,41.79,41.79,0,0,1,.35-7.66A24.37,24.37,0,0,1,202,190.33Z"/>
  </g>
  <path class="cls-23" d="M226.08,219.34s6.43,4.48,24.91,5.57c20.91,1.24,42.26-3.91,42.26-3.91"/>
  <g class="cls-24">
    <path class="cls-25" d="M272.14,128.6a56.45,56.45,0,0,1,13.13-6,54.9,54.9,0,0,1,14.39-2.67,34.8,34.8,0,0,1,7.53.45,37,37,0,0,1,7.16,2.06,29.24,29.24,0,0,1,6.47,3.6,20,20,0,0,1,2.74,2.45,12.2,12.2,0,0,1,2.12,2.95,22.28,22.28,0,0,0-6.06-3.26,35.81,35.81,0,0,0-6.45-1.75c-1.09-.22-2.2-.33-3.29-.48s-2.23-.23-3.27-.25a43,43,0,0,0-6.48.34,105.9,105.9,0,0,0-13.1,2.64c-4.37,1.11-8.8,2.4-13.2,3.57Z"/>
  </g>
  <g class="cls-24">
    <path class="cls-25" d="M243.41,129.05c-2.74-1.11-5.45-2.34-8.12-3.37a58.18,58.18,0,0,0-8-2.61,31.19,31.19,0,0,0-8.2-.86,24.4,24.4,0,0,0-8.47,1.73l-.37-.39a15.09,15.09,0,0,1,8.14-5.38,23,23,0,0,1,10-.51,29.09,29.09,0,0,1,9.22,3.25,27.73,27.73,0,0,1,7.57,5.91Z"/>
  </g>
  <path class="cls-20" d="M278.06,148a26.36,26.36,0,0,1,10.05-6.88A29,29,0,0,1,300.36,139a27.19,27.19,0,0,1,12,3.26,18.73,18.73,0,0,1,8.39,8.85,26.27,26.27,0,0,0-9.55-6.43,34.08,34.08,0,0,0-11-2.23A38.37,38.37,0,0,0,289,143.69,50.29,50.29,0,0,0,278.06,148Z"/>
  <path class="cls-20" d="M242.77,145.94a37.52,37.52,0,0,0-9-5.11,25.15,25.15,0,0,0-9.64-1.75,28.36,28.36,0,0,0-9.68,1.83,22,22,0,0,0-8.43,5.67,15.57,15.57,0,0,1,7.25-8.11,22.21,22.21,0,0,1,8-2.62c.46-.06.92-.14,1.39-.17l1.43-.05a21.28,21.28,0,0,1,10.85,2.76A21,21,0,0,1,242.77,145.94Z"/>
  <path class="cls-20" d="M241.07,80.39a133.07,133.07,0,0,0-21.14,15.68,107.71,107.71,0,0,0-9.14,9.37,58.24,58.24,0,0,0-7.2,10.76,92.62,92.62,0,0,0-4.93,12.06c-.74,2.08-1.49,4.2-2.43,6.29a21.55,21.55,0,0,1-3.84,5.92,14.37,14.37,0,0,1-6.31,3.6,27.47,27.47,0,0,1-6.85,1,39.24,39.24,0,0,1-13.34-1.91l.43-.77h0a31.09,31.09,0,0,0,6.09,4.53,24.14,24.14,0,0,0,7,2.75,20.67,20.67,0,0,0,7.44.16,24.78,24.78,0,0,0,7.09-2.19l2.5-1.24-1.25,2.48h0a25.57,25.57,0,0,1-4.53,6.52,14.26,14.26,0,0,1-6.92,4.24,31.83,31.83,0,0,1-7.8.74c-1.3,0-2.58-.11-3.87-.22s-2.56-.29-3.82-.56c1.29-.06,2.56-.12,3.83-.22s2.54-.18,3.8-.33a42.85,42.85,0,0,0,7.34-1.34,13.92,13.92,0,0,0,5.86-3.85,27.78,27.78,0,0,0,2.38-2.79c.75-1,1.45-2,2.08-3h0l1.25,1.25a25.65,25.65,0,0,1-7.72,2.15,22,22,0,0,1-8-.41,25.73,25.73,0,0,1-7.29-3.1,32.24,32.24,0,0,1-6.16-4.89h0l-1.07-.87,1.5.1a99.23,99.23,0,0,0,13,.18,29.23,29.23,0,0,0,6.19-1,11.49,11.49,0,0,0,5.05-2.91c2.73-3,4.17-7.08,5.66-11.21A79.45,79.45,0,0,1,201.32,115a60.28,60.28,0,0,1,7.79-11,96,96,0,0,1,9.57-9.35,98.37,98.37,0,0,1,10.72-7.91A82.81,82.81,0,0,1,241.07,80.39Z"/>
  <path class="cls-20" d="M172.07,164.72a38,38,0,0,0,5.48,1,23.38,23.38,0,0,0,5.48,0,14.17,14.17,0,0,0,5-1.65,16.08,16.08,0,0,0,2.17-1.45A12.54,12.54,0,0,0,192,161h0l2.05,1.77a54.34,54.34,0,0,0-2.86,4.83,46.76,46.76,0,0,0-2.3,5.17,17.59,17.59,0,0,0-1.06,5.31c-.12,1.85-.13,3.7-.17,5.81a7.89,7.89,0,0,1-1.65-2.69,10.8,10.8,0,0,1-.71-3.07,17.44,17.44,0,0,1,.7-6.33,30.91,30.91,0,0,1,2.4-5.69A25.3,25.3,0,0,1,192,161l2.05,1.78h0a14.74,14.74,0,0,1-2.47,1.87,17.14,17.14,0,0,1-2.67,1.35,15.8,15.8,0,0,1-5.77,1.16,24.27,24.27,0,0,1-5.68-.71A37.68,37.68,0,0,1,172.07,164.72Z"/>
  <path class="cls-20" d="M201.42,117.15a10.39,10.39,0,0,1-4.61,3.23,19.26,19.26,0,0,1-5.47,1.22,24.24,24.24,0,0,1-5.52-.14,19,19,0,0,1-5.35-1.44c1.84-.34,3.63-.52,5.4-.69l5.24-.43c1.73-.15,3.45-.29,5.15-.57A29.13,29.13,0,0,0,201.42,117.15Z"/>
  <path class="cls-20" d="M182.51,125.31c1.73.3,3.33.69,4.91,1,.79.15,1.56.28,2.31.35a8.29,8.29,0,0,0,2.11,0,12.55,12.55,0,0,0,4.06-1.58c1.4-.77,2.79-1.64,4.33-2.49a12.9,12.9,0,0,1-3.08,4.21,9.49,9.49,0,0,1-5,2.55,8.27,8.27,0,0,1-2.88-.17,12,12,0,0,1-2.55-.86A13.55,13.55,0,0,1,182.51,125.31Z"/>
  <g class="cls-26">
    <g>
      <ellipse class="cls-27" cx="298.8" cy="155.82" rx="11.52" ry="11.46" transform="translate(-38 167.22) rotate(-29.48)"/>
      <path class="cls-20" d="M310.91,156a12.07,12.07,0,0,1-3.86,8.33,12.48,12.48,0,0,1-8.46,3.34A12.17,12.17,0,1,1,310.91,156Zm-1.22,0a10.58,10.58,0,0,0-3.21-7.59A10.86,10.86,0,0,0,288,155.66a10.78,10.78,0,0,0,2.85,7.79,10.89,10.89,0,0,0,7.71,3.45,10.64,10.64,0,0,0,7.89-3.14A10.94,10.94,0,0,0,309.69,156Z"/>
    </g>
  </g>
  <ellipse class="cls-20" cx="298.8" cy="155.82" rx="4.83" ry="4.8" transform="translate(-38 167.22) rotate(-29.48)"/>
  <g class="cls-28">
    <g>
      <ellipse class="cls-27" cx="225.6" cy="152.2" rx="10.81" ry="10.54" transform="matrix(0.27, -0.96, 0.96, 0.27, 19.01, 329.34)"/>
      <path class="cls-20" d="M236.4,154.39a11.47,11.47,0,0,1-4.79,7,11.11,11.11,0,0,1-8.26,1.74,10.93,10.93,0,0,1-7-4.74,11.54,11.54,0,0,1,3.06-15.74,11.23,11.23,0,0,1,4.08-1.79,10.87,10.87,0,0,1,11.58,5A11.52,11.52,0,0,1,236.4,154.39Zm-.94-.19a10.38,10.38,0,0,0-1.53-7.61,9.83,9.83,0,0,0-13.73-2.71,10.57,10.57,0,0,0-4.32,6.34,10.45,10.45,0,0,0,1.24,7.66,9.85,9.85,0,0,0,14.1,3A10.51,10.51,0,0,0,235.46,154.2Z"/>
    </g>
  </g>
  <ellipse class="cls-20" cx="225.6" cy="152.2" rx="4.58" ry="4.47" transform="translate(19.01 329.34) rotate(-74.62)"/>
  <path class="cls-20" d="M278.57,160.12a49.52,49.52,0,0,0,10.55,2.79,53.31,53.31,0,0,0,10.77.55,48,48,0,0,0,10.63-1.69,47.25,47.25,0,0,0,10.13-4,29.33,29.33,0,0,1-9.63,5.57,38,38,0,0,1-5.42,1.53,40.54,40.54,0,0,1-5.61.68,42.3,42.3,0,0,1-5.63-.11,41.72,41.72,0,0,1-5.55-.92A30.26,30.26,0,0,1,278.57,160.12Z"/>
  <g class="cls-29">
    <path class="cls-20" d="M279.16,142.85a27.74,27.74,0,0,1,7.75-6,26.59,26.59,0,0,1,9.53-3,25.89,25.89,0,0,1,9.95.9,20.12,20.12,0,0,1,8.57,4.84,29.45,29.45,0,0,0-8.95-3.27,31.6,31.6,0,0,0-9.35-.41c-.78,0-1.54.22-2.31.33s-1.53.33-2.28.55a36.12,36.12,0,0,0-4.46,1.53A51,51,0,0,0,279.16,142.85Z"/>
  </g>
  <g class="cls-30">
    <path class="cls-20" d="M280.25,167.08a70.13,70.13,0,0,0,9.31,3.52,38.74,38.74,0,0,0,9.59,1.66,39.82,39.82,0,0,0,4.88-.09c1.64-.08,3.26-.33,4.89-.54a84.06,84.06,0,0,0,9.75-2.12,35.54,35.54,0,0,1-9.43,3.7,37.26,37.26,0,0,1-10.17,1.12,31.32,31.32,0,0,1-5.13-.68,34.37,34.37,0,0,1-4.9-1.53A33.35,33.35,0,0,1,280.25,167.08Z"/>
  </g>
  <path class="cls-31" d="M343,94.88s-13.65,10.05-36.3,7.54c-28.8-3.19-57.94-46.11-96.46-47.69-34.9-1.43-28.28,39.27,1,51"/>
  <path class="cls-20" d="M207.41,153.29a58.86,58.86,0,0,0,7.29,3.8,31.66,31.66,0,0,0,7.65,2.26,37.63,37.63,0,0,0,4,.43c1.34.12,2.7.11,4.07.16,2.73,0,5.47,0,8.27-.06a37.05,37.05,0,0,1-8.21,1.67,34.28,34.28,0,0,1-8.46-.16,24.08,24.08,0,0,1-4.17-1.07,26.66,26.66,0,0,1-3.87-1.79A25,25,0,0,1,207.41,153.29Z"/>
  <g class="cls-32">
    <path class="cls-20" d="M234.29,166.81a23.86,23.86,0,0,1-7.75,2.49,33.09,33.09,0,0,1-8.2.25,17.37,17.37,0,0,1-8-2.46,12.6,12.6,0,0,1-5.31-6.22,17.16,17.16,0,0,0,6.09,4.81c.57.28,1.17.48,1.75.73s1.2.4,1.83.51a22.31,22.31,0,0,0,3.8.57,58.06,58.06,0,0,0,15.76-.68Z"/>
  </g>
  <g class="cls-29">
    <path class="cls-20" d="M209.64,137.2a20,20,0,0,1,6.68-5.41,15.53,15.53,0,0,1,8.66-1.74,20.29,20.29,0,0,1,8.32,2.76,20,20,0,0,1,6.36,5.77,36,36,0,0,0-7.12-4.33,24.87,24.87,0,0,0-7.76-2.14,16.8,16.8,0,0,0-7.82,1.14A34.69,34.69,0,0,0,209.64,137.2Z"/>
  </g>
  <ellipse class="cls-13" cx="222.63" cy="147.67" rx="4.37" ry="3.32" transform="translate(-39.77 197.81) rotate(-44.38)"/>
  <ellipse class="cls-13" cx="295.37" cy="151.32" rx="4.58" ry="3.48" transform="translate(-21.58 249.73) rotate(-44.38)"/>
  <g class="cls-33">
    <path class="cls-20" d="M232.36,238.49a16.13,16.13,0,0,0,4.37,3,26.43,26.43,0,0,0,4.87,1.82A43,43,0,0,0,252,244.56a114.51,114.51,0,0,0,21.28-2,42.31,42.31,0,0,1-10.34,3.61,49.29,49.29,0,0,1-11,1.16c-.92,0-1.85-.08-2.78-.12s-1.86-.19-2.78-.32a30.39,30.39,0,0,1-5.44-1.47,20.66,20.66,0,0,1-4.93-2.73A12.23,12.23,0,0,1,232.36,238.49Z"/>
  </g>
  <g class="cls-34">
    <path class="cls-20" d="M246.17,252.65a17.21,17.21,0,0,1,0,2.81,21.07,21.07,0,0,1-.35,2.44,17.28,17.28,0,0,1-.65,2.41,12.76,12.76,0,0,1-1.21,2.57,5.65,5.65,0,0,1-1.21-2.74,7.8,7.8,0,0,1,.05-2.85,7.24,7.24,0,0,1,1.11-2.68A5.32,5.32,0,0,1,246.17,252.65Z"/>
  </g>
  <g class="cls-35">
    <path class="cls-20" d="M229.67,247.82a54.43,54.43,0,0,1,10.25-2.36,65.13,65.13,0,0,1,10.55-.62,37.61,37.61,0,0,1,19.85,6.81,74.64,74.64,0,0,0-9.84-3.27,46.93,46.93,0,0,0-10.08-1.48c-1.7-.05-3.43-.05-5.15,0s-3.44.11-5.17.18C236.62,247.27,233.17,247.52,229.67,247.82Z"/>
  </g>
  <path class="cls-31" d="M243.24,60.08s16.93-24,30.32-27.57,28.85-2.29,48.82,3,28.67,18.72,35.56,28.19,4.4,45.1,4.4,45.1"/>
  <path class="cls-31" d="M214.47,55.06c29.67,6.24,41.21,5.69,70.57,12.53s51.7,22.19,58.93,26.8,16.86,13.48,16.86,13.48"/>
  <path class="cls-20" d="M335.89,98.6a61.1,61.1,0,0,0,.2,9.84,41.32,41.32,0,0,0,.77,4.84,30.44,30.44,0,0,0,1.33,4.64c.55,1.44,1.33,3,2,4.6s1.31,3.14,1.94,4.72c1.26,3.16,2.41,6.34,3.48,9.59l.05.14v.13c.41,4.09.77,8.16,1.07,12.25s.57,8.18.52,12.34A74.8,74.8,0,0,1,345.72,174q-1.12,6-2.69,12c.5-4.07,1-8.12,1.45-12.18a101.16,101.16,0,0,0,.75-12.1c-.13-4-.49-8.09-.87-12.14s-.84-8.11-1.34-12.15l.06.27c-1.12-3.13-2.35-6.27-3.59-9.38-.63-1.56-1.28-3.1-1.95-4.64s-1.37-3-2.05-4.69a38.11,38.11,0,0,1-2.28-10.23,58.13,58.13,0,0,1-.07-10.39Z"/>
  <path class="cls-20" d="M355.17,152c-.71,2.8-1.35,5.66-1.91,8.51a68.56,68.56,0,0,0-1.22,8.59c-.18,2.91-.23,5.84-.25,8.77s0,5.87,0,8.81q-.44-4.38-.8-8.78c-.23-2.93-.43-5.86-.52-8.83a71,71,0,0,1,.64-8.9c.37-2.94.82-5.84,1.35-8.77Z"/>
  <path class="cls-20" d="M347.83,140.66a112.53,112.53,0,0,0,15,11.67,78.51,78.51,0,0,0,8.2,4.58,68,68,0,0,0,8.76,3.34c3,1,6,2,9.05,2.77a21.34,21.34,0,0,0,8.92.89,10.64,10.64,0,0,0,4-1.72,17.8,17.8,0,0,0,3.43-3,14.73,14.73,0,0,0,3.66-8.44,13.84,13.84,0,0,1-2.6,9.26,18.43,18.43,0,0,1-3.43,3.63,12,12,0,0,1-4.58,2.36,15.08,15.08,0,0,1-5.12.34,35.51,35.51,0,0,1-4.9-.79c-3.17-.75-6.23-1.72-9.29-2.7a67.43,67.43,0,0,1-9.05-3.61,64.17,64.17,0,0,1-8.26-5.15,69.14,69.14,0,0,1-7.39-6.25A61.36,61.36,0,0,1,347.83,140.66Z"/>
  <path class="cls-20" d="M370.92,162.34a34.78,34.78,0,0,0,6.9,10,24.71,24.71,0,0,0,4.67,3.57,10.6,10.6,0,0,0,1.28.7l1.31.64,1.37.49a8.59,8.59,0,0,0,1.39.43,33.1,33.1,0,0,0,5.86,1.05,37.59,37.59,0,0,0,6,.21,30.14,30.14,0,0,0,6-.84,21.76,21.76,0,0,0,5.71-2.2,16.23,16.23,0,0,1-5.28,3.48,24.42,24.42,0,0,1-6.18,1.7,33.23,33.23,0,0,1-9.61-.09,28.89,28.89,0,0,1-3.2-.66,21.78,21.78,0,0,1-10.86-7A24.23,24.23,0,0,1,370.92,162.34Z"/>
  <path class="cls-20" d="M342.72,98a48.33,48.33,0,0,0,1.66,9.07,69.48,69.48,0,0,0,3,8.64,75.62,75.62,0,0,0,4.17,8.11c.74,1.32,1.62,2.57,2.42,3.86s1.77,2.46,2.68,3.68c1.86,2.44,3.78,4.84,5.79,7.16s4.06,4.59,6.15,6.85A144.52,144.52,0,0,0,382.15,158a75.07,75.07,0,0,1-15.06-11.06A110.54,110.54,0,0,1,354.47,133a62,62,0,0,1-9.07-16.54,53.77,53.77,0,0,1-2.34-9.14A35.85,35.85,0,0,1,342.72,98Z"/>
  <path class="cls-20" d="M355.76,150.93c1.7,3.24,3.5,6.49,5.38,9.64a81.29,81.29,0,0,0,6.15,9.05,37.88,37.88,0,0,0,8,7.24,67.65,67.65,0,0,0,9.65,5.5,43.55,43.55,0,0,1-10.54-4,40.38,40.38,0,0,1-4.85-3.07,34.49,34.49,0,0,1-4.29-3.91,62.68,62.68,0,0,1-6.76-9.2,84.13,84.13,0,0,1-5.28-10Z"/>
  <path class="cls-20" d="M382,163.43a47.83,47.83,0,0,1,3.28,3.49l3,3.47,3,3.41,3.17,3.53a11.37,11.37,0,0,1-4.57-1.88,18.52,18.52,0,0,1-3.7-3.25,19.69,19.69,0,0,1-2.71-4.08A15.2,15.2,0,0,1,382,163.43Z"/>
  <path class="cls-20" d="M361.78,108a57.12,57.12,0,0,1,9.84,9.57c1.47,1.77,2.81,3.64,4.11,5.55a67.19,67.19,0,0,1,3.48,6,88.64,88.64,0,0,1,8.11,26.15c-1.67-4.25-3.29-8.48-5-12.65s-3.5-8.29-5.55-12.25a110,110,0,0,0-6.92-11.46Q366,113.39,361.78,108Z"/>
  <path class="cls-20" d="M353,101.19c2.48,6.48,5,12.93,7.78,19.19a88.39,88.39,0,0,0,4.65,9.1,38.85,38.85,0,0,0,2.84,4.13l3.19,4.08c2.11,2.72,4.26,5.4,6.51,8a70.89,70.89,0,0,0,7.14,7.25c.63.56,1.31,1,2,1.57s1.37,1,2.09,1.36a18.48,18.48,0,0,0,4.58,1.95,21,21,0,0,0,5,.94,14.43,14.43,0,0,0,2.54-.09,7.67,7.67,0,0,0,2.47-.66,10.37,10.37,0,0,1-5,1.51,20.5,20.5,0,0,1-5.3-.38,25.81,25.81,0,0,1-2.59-.65l-1.29-.46c-.42-.16-.82-.38-1.23-.56a25.8,25.8,0,0,1-2.36-1.31c-.73-.51-1.49-1-2.19-1.54-5.65-4.33-10.15-9.77-14.47-15.2l-3.16-4.14a35.87,35.87,0,0,1-3-4.46,72.31,72.31,0,0,1-4.38-9.58A128.63,128.63,0,0,1,353,101.19Z"/>
  <path class="cls-31" d="M353.9,203.5s.23,3.36,6.3,3.45,11.68-22,11.56-30.89"/>
  <path class="cls-20" d="M354.88,170.32a9.47,9.47,0,0,1,4.83,4,12,12,0,0,1,1.39,2.92,14.13,14.13,0,0,1,.42,1.58,10.08,10.08,0,0,1,.13,1.73,9.71,9.71,0,0,1-.65,3.32,13,13,0,0,1-1.55,2.84,13.4,13.4,0,0,1-4.68,4.06,49.74,49.74,0,0,0,2.8-5.16,12.91,12.91,0,0,0,1.32-5.1,7.36,7.36,0,0,0-.06-1.24c-.07-.43-.14-.89-.24-1.33a17.88,17.88,0,0,0-.79-2.62A17.55,17.55,0,0,0,354.88,170.32Z"/>
  <path class="cls-36" d="M337.87,243.75c-1.82,14.9,3.15,24.31,3.15,24.31"/>
  <path class="cls-20" d="M241.3,235a23.85,23.85,0,0,1,9-8,22.23,22.23,0,0,1,5.81-2.07,51.75,51.75,0,0,1,6-.76c2-.09,4-.11,6.06,0a50.7,50.7,0,0,1,6,.68,37.16,37.16,0,0,1,5.87,1.5,16.28,16.28,0,0,1,5.26,2.93c-3.53-1.88-7.48-2.39-11.35-2.83a77.75,77.75,0,0,0-11.72-.2,55.58,55.58,0,0,0-5.8.61,24.16,24.16,0,0,0-5.49,1.61A31.47,31.47,0,0,0,241.3,235Z"/>
  <path class="cls-20" d="M254.53,274.29c3.29,3.23,6.63,6.19,10,9.12s6.87,5.77,10.44,8.46a59.6,59.6,0,0,0,5.53,3.74,21.78,21.78,0,0,0,5.86,2.56,4.47,4.47,0,0,0,1.31.13,8.89,8.89,0,0,0,1.39-.29c1-.27,2.09-.63,3.14-1q3.17-1.12,6.26-2.47a165.93,165.93,0,0,0,23.73-12.75c1.87-1.22,3.72-2.48,5.51-3.8s3.5-2.74,5.23-4.14,3.38-2.87,5-4.43,3.15-3.17,4.69-4.92a24,24,0,0,1-3,6.32,39.29,39.29,0,0,1-4.47,5.41,57.12,57.12,0,0,1-5.26,4.58c-1.83,1.43-3.7,2.8-5.64,4.06a134,134,0,0,1-24.57,12.51c-2.15.83-4.29,1.66-6.49,2.39-1.11.36-2.21.71-3.38,1a11.82,11.82,0,0,1-2,.34,7.51,7.51,0,0,1-2.07-.23,28.84,28.84,0,0,1-6.62-2.86q-3.06-1.71-5.92-3.67a68.77,68.77,0,0,1-10.62-8.86,50.23,50.23,0,0,1-4.52-5.25A30.19,30.19,0,0,1,254.53,274.29Z"/>
  <path class="cls-20" d="M340.61,262.62c5.34.82,10.56,1.88,15.77,3.11s10.37,2.68,15.46,4.4a104.77,104.77,0,0,1,14.93,6.21,61.37,61.37,0,0,1,7,4.23,29.09,29.09,0,0,1,6,5.94,67.73,67.73,0,0,1,8,14.21,146.57,146.57,0,0,1,5.47,15.15,245.2,245.2,0,0,1,7.19,31.25h0l.17,1-.79.61a14.89,14.89,0,0,1-1.5,1c-.48.29-1,.55-1.45.81-1,.51-1.95,1-2.94,1.38a60,60,0,0,1-6,2.1,101.39,101.39,0,0,1-12.34,2.7,114.89,114.89,0,0,1-12.54,1.2,91,91,0,0,1-12.66-.31h0l-1.22-.07-.3-1.35c-.72-3.2-1.3-6.41-1.83-9.64s-1-6.46-1.45-9.7-.81-6.49-1.13-9.76-.55-6.54-.61-9.84c1.06,3.13,1.93,6.3,2.75,9.47s1.55,6.37,2.23,9.57,1.33,6.4,1.91,9.62,1.12,6.44,1.53,9.69l-1.53-1.42h0a106.77,106.77,0,0,0,12.13,0q6.11-.31,12.14-1.22a97,97,0,0,0,11.9-2.47c1.93-.55,3.84-1.17,5.69-1.9.93-.36,1.84-.75,2.71-1.17.44-.22.87-.43,1.28-.67s.86-.51,1.09-.67l-.61,1.59h0A242.11,242.11,0,0,0,410,316.88a143,143,0,0,0-5.34-14.79,64.51,64.51,0,0,0-7.57-13.47,26.37,26.37,0,0,0-5.26-5.24,57.62,57.62,0,0,0-6.61-4,102.83,102.83,0,0,0-14.44-6A189.51,189.51,0,0,0,340.13,266Z"/>
  <path class="cls-20" d="M237.65,275.63a55.53,55.53,0,0,0-11.93,1.74,45.23,45.23,0,0,0-11.17,4.41,29.38,29.38,0,0,0-9,7.58,54.58,54.58,0,0,0-6.08,10.45,149.19,149.19,0,0,0-8,23.34c-2.11,8-3.86,16.14-5.19,24.27h0l-.87-1.77c1.35.63,2.89,1.26,4.4,1.79s3,1,4.61,1.46a80.39,80.39,0,0,0,9.48,2.05c3.18.44,6.49.82,9.74,1.08s6.58.49,9.76.57l.14,3.45a82.32,82.32,0,0,1-10.18,0c-1.68-.11-3.36-.23-5-.4l-2.52-.27-2.53-.36a68.21,68.21,0,0,1-10-2.34,50.58,50.58,0,0,1-9.55-4l-.87-.49V346.9h0c1.36-8.33,3.12-16.5,5.27-24.63a150.39,150.39,0,0,1,8.24-23.9,57.68,57.68,0,0,1,6.48-11.12,29.12,29.12,0,0,1,4.59-4.76,37.21,37.21,0,0,1,5.4-3.71,48.68,48.68,0,0,1,12-4.76,58.69,58.69,0,0,1,6.31-1.26,50.19,50.19,0,0,1,6.47-.58Z"/>
  <path class="cls-20" d="M226.05,318.94c.65,5.93.94,11.84,1.11,17.76s.18,11.82.09,17.73c-.18,11.81-.33,23.63-.64,35.45s-.69,23.65-1.19,35.44-1,23.6-1.55,35.39l-3.45-.08c0-11.83.17-23.65.51-35.47l1.13-35.41,1.17-35.42c.2-5.9.46-11.8.92-17.7S225.15,324.83,226.05,318.94Z"/>
  <path class="cls-20" d="M189.88,348.71a332.72,332.72,0,0,0-4.18,36.36c-.38,6.08-.55,12.18-.51,18.26,0,1.53,0,3.05.11,4.53s.19,3,.33,4.47.37,3,.54,4.48.47,3,.71,4.46a207.84,207.84,0,0,0,10,35c2.15,5.71,4.45,11.29,6.93,16.92s4.82,11.28,7.13,17l.15.39v.22h0c.18,2.15.44,4.36.75,6.54s.68,4.35,1.1,6.51a77.05,77.05,0,0,0,3.51,12.61l-3.22,1.26a80.59,80.59,0,0,1-3.67-13.19q-.66-3.35-1.14-6.71c-.31-2.25-.58-4.47-.77-6.77h0l.16.6c-2.86-5.47-5.51-11-8.1-16.6-1.27-2.79-2.54-5.6-3.77-8.47s-2.33-5.74-3.4-8.65a212.84,212.84,0,0,1-10.05-35.84c-.24-1.54-.5-3.08-.71-4.63s-.42-3.1-.53-4.67-.26-3.13-.29-4.72-.07-3.14,0-4.69q0-9.29.72-18.55A316.9,316.9,0,0,1,186.5,348Z"/>
  <g class="cls-35">
    <path class="cls-20" d="M219.9,324.34c.25.92.44,1.83.61,2.73s.39,1.81.59,2.69c.42,1.78.83,3.54,1.35,5.24s1.1,3.38,1.74,5a47.08,47.08,0,0,1,1.61,5.27,6.76,6.76,0,0,1-2.43-1.77,11,11,0,0,1-1.65-2.41,23.5,23.5,0,0,1-1.76-5.48,30,30,0,0,1-.59-5.66c0-.94,0-1.89.12-2.83S219.73,325.26,219.9,324.34Z"/>
  </g>
  <g class="cls-35">
    <path class="cls-20" d="M356.77,322.12l1.13,2.42c.41.78.8,1.58,1.23,2.35a49.81,49.81,0,0,0,2.76,4.48,38.91,38.91,0,0,0,3.22,4.07c.58.62,1.17,1.23,1.8,1.79.3.28.62.55.94.81a8.24,8.24,0,0,0,.9.64l-2,2.8a11.38,11.38,0,0,1-1.1-1.1c-.32-.36-.64-.72-.92-1.09-.6-.74-1.13-1.5-1.64-2.27a40.8,40.8,0,0,1-2.66-4.78,51.53,51.53,0,0,1-2.06-5c-.31-.84-.56-1.7-.84-2.54Z"/>
  </g>
  <path class="cls-20" d="M222,356.3c-1.37,10.24-2.64,20.53-3.71,30.81-.53,5.14-1,10.28-1.36,15.41-.15,2.55-.32,5.14-.3,7.62s.21,5,.45,7.59c1,10.21,2.61,20.45,4.36,30.63.89,5.09,1.84,10.18,2.88,15.23s2.3,10,3.78,14.89l-1.72-1.19h0a21.41,21.41,0,0,1,2.52.41c.79.17,1.58.37,2.35.6a22.1,22.1,0,0,1,4.47,1.86,16.47,16.47,0,0,1,6.78,6.95c.38.77.65,1.39,1,2s.65,1.28,1,1.9c.71,1.26,1.48,2.48,2.28,3.69,1.63,2.42,3.42,4.76,5.33,7.11a42,42,0,0,1,2.81,3.77,6.71,6.71,0,0,1,.61,1.23,3,3,0,0,1,.1,1.78,2.62,2.62,0,0,1-1.11,1.49,6.35,6.35,0,0,1-1.29.63,11,11,0,0,1-5,.54,12.85,12.85,0,0,1-4.72-1.62,21.35,21.35,0,0,1-6.86-6.53,25.73,25.73,0,0,1-3.89-8.38c2,2.37,3.83,4.7,5.79,6.88a31.65,31.65,0,0,0,6.36,5.67,8.93,8.93,0,0,0,7.61,1.33,2.93,2.93,0,0,0,.75-.34c.19-.13.23-.21.24-.25a2.24,2.24,0,0,0-.5-1.22,27.15,27.15,0,0,0-2.84-3.28,63.49,63.49,0,0,1-6-7,32.13,32.13,0,0,1-2.46-4c-.36-.7-.7-1.41-1-2.14s-.57-1.52-.81-2.11a11.88,11.88,0,0,0-5.27-6.13,13.07,13.07,0,0,0-3.94-1.41,13.35,13.35,0,0,0-2.09-.22,8.93,8.93,0,0,0-2,.17h0l-1.34,0-.39-1.23c-1.59-5.05-2.88-10.08-4-15.2s-2.09-10.2-3-15.32c-1.86-10.24-3.58-20.48-4.67-30.9-.28-2.61-.49-5.23-.54-7.93s.1-5.3.23-7.92c.31-5.22.75-10.41,1.24-15.58,1-10.36,2.17-20.67,3.47-31Z"/>
  <path class="cls-37" d="M210.86,516.36a125.74,125.74,0,0,0,14.48-5.09,62.12,62.12,0,0,0,12.25-7.91"/>
  <path class="cls-37" d="M351.66,504.88c11.91,15.82,34.94,18,34.94,18"/>
  <path class="cls-20" d="M252.59,535.92c4.71.92,9.35,1.87,14,2.73s9.25,1.67,13.88,2.22,9.32,1,14,1.43,9.41.93,14,1.29l.16,1.7a71.73,71.73,0,0,1-14.44.85A112.55,112.55,0,0,1,279.88,545c-2.39-.39-4.76-.87-7.1-1.42s-4.67-1.21-6.94-2A75.73,75.73,0,0,1,252.59,535.92Z"/>
  <g class="cls-35">
    <path class="cls-20" d="M246,549.61c3.47.36,6.84.51,10.21.54s6.7,0,10.06-.22,6.72-.42,10.11-.66,6.8-.48,10.3-.57a49.07,49.07,0,0,1-9.9,3.26,64,64,0,0,1-10.33,1.42,50.38,50.38,0,0,1-10.48-.53A30.24,30.24,0,0,1,246,549.61Z"/>
  </g>
  <g class="cls-35">
    <path class="cls-20" d="M248.05,566.05a44.06,44.06,0,0,1,8.52-4.85,48.94,48.94,0,0,1,4.6-1.75,39.57,39.57,0,0,1,4.75-1.24c3.16-.65,6.35-1.19,9.56-1.59a71.66,71.66,0,0,1,9.74-.62,72.42,72.42,0,0,1-9.18,3.28c-3.09.89-6.21,1.65-9.35,2.3-1.6.3-3.1.63-4.63,1l-4.6,1.16C254.37,564.54,251.27,565.38,248.05,566.05Z"/>
  </g>
  <g class="cls-38">
    <path class="cls-20" d="M306.86,551.63c2.61.35,5.1.77,7.57,1.15s4.86.69,7.37,1,5,.65,7.52,1.12a51.11,51.11,0,0,1,7.5,1.95,41.49,41.49,0,0,1-7.73.76,59.85,59.85,0,0,1-7.69-.4,32.38,32.38,0,0,1-7.66-1.77A24.69,24.69,0,0,1,306.86,551.63Z"/>
  </g>
  <path class="cls-20" d="M416.76,349.82c1.22,6.5,2.2,13,3,19.52s1.5,13.08,1.89,19.67a185.46,185.46,0,0,1,.25,19.88c-.12,1.67-.2,3.34-.36,5s-.4,3.37-.7,5c-.55,3.32-1.33,6.56-2.14,9.78a312.44,312.44,0,0,1-12.87,37.44,220.25,220.25,0,0,1-17.74,35.33h0l.23-.9a55.36,55.36,0,0,1-.36,5.71q-.32,2.79-.8,5.55c-.34,1.83-.71,3.66-1.14,5.47s-.92,3.61-1.43,5.4l-3.31-1c.49-1.73,1-3.47,1.38-5.22s.78-3.52,1.1-5.29.57-3.54.77-5.32.33-3.6.34-5.26v-.43l.22-.46h0c2.85-5.81,5.6-11.74,8.27-17.65s5.2-11.91,7.69-17.92a309.32,309.32,0,0,0,12.85-36.73c.8-3.12,1.56-6.25,2.11-9.38.31-1.57.52-3.13.73-4.69s.28-3.18.42-4.77a178.76,178.76,0,0,0,.05-19.37,386.42,386.42,0,0,0-3.88-38.83Z"/>
  <path class="cls-20" d="M383.68,356.69c1,5.61,1.8,11.17,2.55,16.79s1.39,11.23,1.83,16.89a145.45,145.45,0,0,1,.53,17.13,145.12,145.12,0,0,1-2.09,17q-2.87,16.72-6.89,33.17c-1.38,5.48-2.78,10.95-4.48,16.36a93.26,93.26,0,0,1-6.51,15.81l-.49.92-.88-.42h0a26.65,26.65,0,0,0-8.32-1.4,12,12,0,0,0-7.52,2.31,11.63,11.63,0,0,0-1.43,1.39l-1.53,1.68q-1.53,1.65-3.11,3.27c-2.09,2.14-4.22,4.25-6.23,6.38a36.42,36.42,0,0,0-2.8,3.26,9.54,9.54,0,0,0-1,1.66,1.75,1.75,0,0,0-.2,1.19c.05.21.35.53.91.8a4.77,4.77,0,0,0,1.69.47,8.32,8.32,0,0,0,3.8-.73,30.39,30.39,0,0,0,7.22-4.65c2.29-1.85,4.47-3.88,6.64-6a39.87,39.87,0,0,1-5.53,7.17,25.82,25.82,0,0,1-7.41,5.54,10.64,10.64,0,0,1-4.88,1.09,7.28,7.28,0,0,1-2.62-.62,5.81,5.81,0,0,1-1.25-.76,3.69,3.69,0,0,1-1-1.41,3.45,3.45,0,0,1-.2-1.74,5.44,5.44,0,0,1,.39-1.43,11.59,11.59,0,0,1,1.25-2.2,37.76,37.76,0,0,1,3-3.59c2.06-2.23,4.2-4.31,6.27-6.44q1.56-1.59,3.07-3.21l1.49-1.63c.22-.26.56-.6.83-.89s.62-.57.95-.83a12.78,12.78,0,0,1,4.46-2.25,17.24,17.24,0,0,1,4.82-.58,23.77,23.77,0,0,1,9.14,2.15h0l-1.37.49a111.64,111.64,0,0,0,5.45-15.7c1.39-5.4,2.71-10.85,3.9-16.32,2.4-11,4.55-22,6.23-33a154.53,154.53,0,0,0,1.79-16.5,142,142,0,0,0-.69-16.57c-1-11.09-2.58-22.23-4.5-33.21Z"/>
  <path class="cls-20" d="M378.92,357.16l-.08,12.76-.17,12.75c-.12,8.5-.34,17-.4,25.49-.07,4.25-.14,8.48-.11,12.72s.15,8.47.2,12.72.2,8.49.33,12.74l.36,12.74-1.68.12c-.49-4.23-.86-8.47-1.25-12.72s-.65-8.49-.93-12.75c-.55-8.5-.8-17.07-.84-25.59s.08-17,.28-25.54l.33-12.76c.16-4.26.29-8.51.51-12.76Z"/>
  <path class="cls-37" d="M242.78,490.88s19,10.5,45.82,10.5a498.22,498.22,0,0,0,55.13-3.65"/>
  <g class="cls-35">
    <path class="cls-20" d="M296,493.16c5.84-.48,11.63-1,17.37-1.77a148.63,148.63,0,0,0,17-3.16l17-4.08c5.67-1.35,11.35-2.66,17.1-3.77-5.42,2.21-10.95,4.11-16.53,5.85-2.78.9-5.59,1.68-8.4,2.49s-5.65,1.51-8.5,2.2-5.74,1.29-8.67,1.71-5.85.75-8.78.9A103.19,103.19,0,0,1,296,493.16Z"/>
  </g>
  <g class="cls-35">
    <path class="cls-20" d="M330.35,479a89.33,89.33,0,0,1,9.83-3.3c3.31-.93,6.66-1.75,10-2.43a63,63,0,0,1,10.34-1.36,34.18,34.18,0,0,1,10.38,1.16c-3.46.17-6.85.51-10.19,1s-6.62,1.27-10,1.92-6.73,1.28-10.13,1.82S333.82,478.8,330.35,479Z"/>
  </g>
  <g class="cls-35">
    <path class="cls-20" d="M229.87,471.25c3.83,2,7.67,3.91,11.56,5.62,2,.84,3.91,1.68,5.9,2.4s4,1.45,6,2c4,1.21,8.19,2.12,12.37,3l12.66,2.49a73.2,73.2,0,0,1-13-.37c-2.16-.19-4.3-.57-6.45-.94s-4.26-.92-6.38-1.52a61.11,61.11,0,0,1-12.05-5.14A54.34,54.34,0,0,1,229.87,471.25Z"/>
  </g>
  <path class="cls-20" d="M213.38,516.35c1.39,2.81,2.65,5.68,3.89,8.54l1.85,4.27c.6,1.42,1.22,2.77,1.89,4.23,1.24,2.89,2.55,5.75,3.65,8.7a45,45,0,0,1,2.44,9.27,44.51,44.51,0,0,1-5.61-7.76c-1.59-2.71-3-5.53-4.4-8.32-.68-1.38-1.43-2.85-2.08-4.32s-1.25-2.92-1.81-4.4c-1.14-2.95-2.19-5.92-3-9Z"/>
  <path class="cls-20" d="M225.5,544.29c.73,4.92,1.36,9.83,2,14.75s1.15,9.86,1.6,14.8.87,9.9,1.17,14.88l.18,3.73.1,3.76c.05,2.46.11,4.91.2,7.37.2,4.91.53,9.8.94,14.72.19,2.47.42,4.93.53,7.49a21.11,21.11,0,0,1-.15,4.08l-.11.56-.06.28-.05.21c-.07.27-.14.53-.2.82l-.37,1.72a66.3,66.3,0,0,0-1,7.22,68.93,68.93,0,0,0,0,7.33,30,30,0,0,0,1,7,12.26,12.26,0,0,0,1.37,3,8.83,8.83,0,0,0,1,1.25,4.16,4.16,0,0,0,.54.5l.28.21c.07.05.21.13.18.1h0l.84,1.36c.6,4.81,1.11,9.63,1.56,14.45s.91,9.64,1.28,14.47c.77,9.66,1.4,19.32,2.1,29s1.66,19.27,2.5,28.94c.21,2.42.41,4.84.57,7.28.08,1.23.14,2.44.14,3.74s-.08,2.44-.12,3.67l-.54,14.53h0l-.81-1.12c3.35,1,6.77,1.95,10.19,2.76a86,86,0,0,0,10.31,1.9,25.8,25.8,0,0,0,5.12.12,45.23,45.23,0,0,0,5.14-.68,63.81,63.81,0,0,0,10-2.8h0l-.7,1.09c-.67-10.32-1.16-20.62-1.58-30.94L279.47,717l-1-30.94c-.14-5.16-.29-10.31-.34-15.5,0-1.32,0-2.54.06-4l0-.19a1.6,1.6,0,0,1,0-.29c.13-.45.11-.35.13-.43a3.5,3.5,0,0,0,.12-.35c.07-.25.14-.53.2-.82.13-.58.23-1.18.31-1.78s.14-1.2.17-1.77a4.26,4.26,0,0,0,0-.72s0-.09,0,0,0,0,0,0l0-.11-.16-.46-1.2-3.67h0l-.2-.61.26-.62a20.74,20.74,0,0,0,.8-2.21,7.2,7.2,0,0,0,.35-2,15.61,15.61,0,0,0-.3-2.27c-.15-.8-.34-1.62-.54-2.4h0l-.17-.67.35-.64a12.79,12.79,0,0,0,1-2.55,11,11,0,0,0,.4-2.7V620.11c.06-8.52.19-17.06.78-25.6s1.28-17,2-25.47,1.6-16.94,2.47-25.41l3.84.4q-1.36,12.68-2.57,25.36c-.79,8.45-1.56,16.91-2.14,25.36s-.77,16.9-.87,25.39l-.05,12.73v6.41a14.15,14.15,0,0,1-.55,3.58,15.09,15.09,0,0,1-1.36,3.36l.18-1.31h0c.23.89.42,1.74.59,2.63a18.33,18.33,0,0,1,.36,2.84,10.38,10.38,0,0,1-.49,3.06,23.66,23.66,0,0,1-.95,2.63l.07-1.23h0l1.17,3.69.14.46,0,.12.06.27a2.55,2.55,0,0,1,.07.44,8.1,8.1,0,0,1,0,1.21c0,.73-.12,1.4-.22,2.08s-.22,1.35-.38,2c-.08.34-.16.69-.27,1.05-.06.18-.11.36-.19.57s-.12.32,0,0c0-.14,0,0,0,0v0c-.08,1.09-.08,2.46-.08,3.71,0,5.13.08,10.29.17,15.44l.68,30.93.84,30.93c.31,10.3.69,20.6,1.26,30.88l0,.81-.74.28h0a64.61,64.61,0,0,1-10.42,2.94,48.68,48.68,0,0,1-5.4.74l-1.37.07h-1.4c-.92,0-1.84-.08-2.74-.19a89.22,89.22,0,0,1-10.61-1.91c-3.48-.82-6.92-1.74-10.35-2.78l-.82-.25v-.87h0L240.47,763c0-1.2,0-2.46,0-3.6s-.16-2.33-.27-3.51c-.22-2.39-.5-4.79-.77-7.19-1.12-9.61-2.33-19.25-3.19-28.93s-1.73-19.31-2.49-29q-.58-7.24-1-14.51c-.31-4.83-.56-9.68-.73-14.52l.84,1.35h0a4,4,0,0,1-.56-.45,5.44,5.44,0,0,1-.42-.41c-.26-.28-.51-.56-.73-.85a11.83,11.83,0,0,1-1.14-1.8,17.79,17.79,0,0,1-1.41-3.82,23,23,0,0,1-.61-3.88c-.12-1.26-.19-2.52-.25-3.78-.12-2.51-.11-5-.13-7.51s-.11-5,0-7.59c.05-.64.07-1.29.17-1.95,0-.32.1-.66.15-1l0-.24,0-.18c0-.12,0-.24,0-.35a26.15,26.15,0,0,0,0-3.34c-.11-2.38-.34-4.85-.54-7.31-.43-4.94-.78-9.92-1-14.9-.11-2.49-.17-5-.22-7.47s-.15-4.89-.26-7.34c-.24-4.91-.6-9.82-1-14.74-.85-9.82-1.84-19.66-3-29.46Z"/>
  <path class="cls-20" d="M307.25,543.87c1.22,4.4,2.23,8.75,3.12,13.18s1.58,8.9,2.18,13.31l3.56,26.52,3.35,26.54.83,6.64.4,3.32.19,1.69a18,18,0,0,1,.09,1.82,14.57,14.57,0,0,1-.52,3.66c-.3,1.17-.74,2.26-1,3.22a5.65,5.65,0,0,0-.11.68c0,.11,0,.22,0,.32v.08h0s0,0,0,0A4.67,4.67,0,0,0,320,646a11.11,11.11,0,0,0,2.13,2.32h0l.86.62-.57,1.07a17.2,17.2,0,0,0-1.06,2.5,12.74,12.74,0,0,0-.37,1.26,4.78,4.78,0,0,0-.17,1.08c-.06,0,.11.35.3.7s.44.74.69,1.1a14.58,14.58,0,0,0,1.75,2.09h0l.33.38v.68c0,2.44,0,4.94.2,7.39.08,1.23.19,2.44.33,3.64.07.61.16,1.16.26,1.8l.29,1.9c.68,5.1.91,10.11,1.26,15.13L328,719.73c.51,10,.93,20.06,1.36,30.09s.77,20.07,1.06,30.1h0l-.72-.93a56.55,56.55,0,0,0,10.47,1.76,52,52,0,0,0,10.59-.22q5.34-.7,10.59-1.85a97.71,97.71,0,0,0,10.28-2.81h0l-1,1.63c-.62-5.33-1.15-10.63-1.66-15.94-.24-2.66-.53-5.3-.7-8s-.28-5.35-.39-8c-.39-10.68-.59-21.34-.75-32s-.22-21.32-.14-32q0-4,.13-8c0-1.35.08-2.69.15-4,0-.69.08-1.35.18-2.12a5.75,5.75,0,0,1,.11-.67,3,3,0,0,1,.22-.64l.07-.17a7.55,7.55,0,0,0,.3-.76,54.24,54.24,0,0,0,1.73-7.49,58.18,58.18,0,0,0,.86-7.69,45.24,45.24,0,0,0-.69-7.62l-1.27-7.89a29,29,0,0,1-.4-4.28l.2-4,.46-8,2-31.91,1.06-16,.57-8,.31-4,.17-2c.07-.71.11-1.28.24-2.15a15.85,15.85,0,0,1,.68-2.2l.7-1.89,1.42-3.74L379,538.8c1.85-5,3.76-10,5.25-14.93l3.42,1c-1.55,5.26-3.44,10.21-5.29,15.24l-2.82,7.48-1.4,3.73-.68,1.86a14.94,14.94,0,0,0-.52,1.61c-.06.44-.13,1.2-.19,1.82l-.17,2-.31,4-.57,8-1.06,15.93-2,31.9-.46,8-.19,3.93a25.37,25.37,0,0,0,.36,3.66l1.27,7.89a47.19,47.19,0,0,1,.7,8.28,64.36,64.36,0,0,1-.94,8.18,57.58,57.58,0,0,1-1.92,8,11.25,11.25,0,0,1-.43,1.1l-.14.29c.05,0,.1-.27.08-.17s0,.19,0,.32c-.08.55-.12,1.22-.16,1.86-.08,1.3-.13,2.62-.17,3.94-.08,2.64-.13,5.3-.16,8-.13,10.63-.1,21.28,0,31.92s.26,21.3.6,31.92c.09,2.65.2,5.31.35,7.94s.43,5.27.66,7.92c.48,5.29,1,10.6,1.58,15.86l.14,1.24-1.16.38h0a99.31,99.31,0,0,1-10.72,2.67q-5.4,1.05-10.85,1.64a54.9,54.9,0,0,1-11.1,0A59.77,59.77,0,0,1,329.1,781l-.67-.2-.05-.73h0q-1.12-15-2.05-30l-1.78-30.06-2-30c-.34-5-.63-10-1.24-14.87l-.26-1.83c-.09-.6-.2-1.29-.27-1.92-.15-1.3-.25-2.58-.32-3.86-.15-2.57-.2-5.09-.17-7.66l.33,1h0c-.45-.9-.88-1.74-1.36-2.61-.23-.43-.47-.86-.7-1.34-.12-.24-.23-.48-.35-.78a5.27,5.27,0,0,1-.16-.51,4,4,0,0,1-.08-.65,9,9,0,0,1,.18-1.71c.09-.5.19-1,.29-1.47.2-1,.4-1.9.58-2.89l.3,1.7h0c-.55-1.11-1.13-2.07-1.7-3.16a8.72,8.72,0,0,1-.8-1.89,2.53,2.53,0,0,1-.08-.73c0-.17,0-.35,0-.52a9.52,9.52,0,0,1,.12-1c.21-1.23.44-2.27.53-3.29a16.71,16.71,0,0,0,0-3c0-.5-.09-1-.15-1.51l-.21-1.63-.43-3.31-.9-6.62-3.66-26.49L308.37,571c-.64-4.42-1.24-8.77-2.11-13.09s-1.84-8.65-3-12.85Z"/>
  <g class="cls-35">
    <path class="cls-20" d="M233,659.92c1.61.62,3.17,1.39,4.72,2a23.73,23.73,0,0,0,4.53,1.57c1.68.23,3.5.48,5.23.82a45.45,45.45,0,0,1,5.27,1.29,45.14,45.14,0,0,1-5.38.66c-.9.07-1.8.12-2.69.14s-1.75.07-2.73,0a11.25,11.25,0,0,1-2.95-.54,16.6,16.6,0,0,1-2.64-1.08,17.63,17.63,0,0,1-4.54-3.23Z"/>
  </g>
  <g class="cls-35">
    <path class="cls-20" d="M279.62,646.93a28,28,0,0,1-10.36,2.35,32.56,32.56,0,0,1-5.32-.14,23,23,0,0,1-5.2-1.08A83.6,83.6,0,0,0,269,647c1.67-.32,3.33-.61,5-1s3.29-.75,5-1Z"/>
  </g>
  <g class="cls-35">
    <path class="cls-20" d="M279.66,656.39a54.19,54.19,0,0,1-7,1.16c-2.34.26-4.7.48-7.09.56,2.24-.82,4.5-1.52,6.77-2.17a53.22,53.22,0,0,1,6.89-1.58Z"/>
  </g>
  <g class="cls-35">
    <path class="cls-20" d="M275.59,639.25a21.28,21.28,0,0,1-3.94,1.1,33.61,33.61,0,0,1-4,.52c-2.52.2-5.1.74-7.89.81a14.7,14.7,0,0,1,3.65-1.93,15.39,15.39,0,0,1,4.06-.94,36.23,36.23,0,0,1,4-.07A20.23,20.23,0,0,1,275.59,639.25Z"/>
  </g>
  <g class="cls-35">
    <path class="cls-20" d="M322.18,648.73c1,.13,1.91.32,2.86.51s1.9.36,2.85.52c1.89.32,3.79.67,5.71.89s3.85.38,5.79.41a33.89,33.89,0,0,0,5.85-.33,22.84,22.84,0,0,1-5.77,1.58,38.76,38.76,0,0,1-6,.38,40.14,40.14,0,0,1-6-.5c-1-.15-2-.37-2.94-.59s-1.93-.54-2.88-.87Z"/>
  </g>
  <g class="cls-35">
    <path class="cls-20" d="M322.26,658.76a21.64,21.64,0,0,1,2.42,0c.8.05,1.59.1,2.38.19,1.58.12,3.14.33,4.71.5l4.7.59c1.59.18,3.16.39,4.84.51a13.84,13.84,0,0,1-4.77,1.62,26,26,0,0,1-5,.38,30,30,0,0,1-4.93-.46,22.89,22.89,0,0,1-4.77-1.34Z"/>
  </g>
  <g class="cls-35">
    <path class="cls-20" d="M326.19,668.6c1.42.56,2.81,1,4.21,1.49s2.79.84,4.2,1.24,2.83.76,4.25,1.18a36.5,36.5,0,0,1,4.25,1.57,17.56,17.56,0,0,1-4.58,0,23.33,23.33,0,0,1-4.44-1,22.35,22.35,0,0,1-4.23-1.76A13.57,13.57,0,0,1,326.19,668.6Z"/>
  </g>
  <path class="cls-20" d="M369.86,666a20.23,20.23,0,0,1-6.76,4.47,26.4,26.4,0,0,1-7.7,2.08c2.29-1.37,4.57-2.61,6.78-3.91,1.1-.64,2.18-1.32,3.23-2s2.06-1.41,3-2.16Z"/>
  <g class="cls-35">
    <path class="cls-20" d="M363.55,675.6a18.63,18.63,0,0,1-2.93,4.88,18.41,18.41,0,0,1-4.23,3.86c-1.52,1.07-3.1,2.08-4.71,3a38.21,38.21,0,0,1-5,2.54,39.16,39.16,0,0,1,4.1-3.86c1.43-1.18,2.9-2.31,4.42-3.37a37,37,0,0,0,4.29-3.3C360.82,678.16,362.15,676.89,363.55,675.6Z"/>
  </g>
  <g class="cls-35">
    <path class="cls-20" d="M308.71,557.34c1.68.8,3.32,1.63,5,2.41s3.36,1.54,5.07,2.27c3.42,1.47,6.86,2.89,10.31,4.52a33.37,33.37,0,0,1-5.63-.91A49.7,49.7,0,0,1,318,564a46.79,46.79,0,0,1-5.26-2.26,32.45,32.45,0,0,1-4.89-3Z"/>
  </g>
  <g class="cls-35">
    <path class="cls-20" d="M335.38,539.27a49.07,49.07,0,0,0,6.6,9,23.1,23.1,0,0,0,13.74,8,36.11,36.11,0,0,0,5.38.76,42.19,42.19,0,0,0,11-.73,18.65,18.65,0,0,1-5.32,2.18A21.51,21.51,0,0,1,364,559a18.9,18.9,0,0,1-2.91.21,26,26,0,0,1-5.83-.54,27.72,27.72,0,0,1-5.63-1.8,25.48,25.48,0,0,1-8.92-7.52,33.51,33.51,0,0,1-3.09-4.86A30.86,30.86,0,0,1,335.38,539.27Z"/>
  </g>
  <g class="cls-35">
    <path class="cls-20" d="M231.66,550.45a49.54,49.54,0,0,0,4.58-2.47,38.22,38.22,0,0,0,4.09-3q1.93-1.6,3.78-3.4c1.22-1.2,2.42-2.44,3.67-3.73a16.25,16.25,0,0,1-2.44,4.78,21.31,21.31,0,0,1-3.7,4,17.75,17.75,0,0,1-4.68,2.79A13.28,13.28,0,0,1,231.66,550.45Z"/>
  </g>
  <g class="cls-35">
    <path class="cls-20" d="M286.17,501.23l.32,5.61.41,5.61c.3,3.74.66,7.46,1.21,11.13q.4,2.76,1,5.43a22.79,22.79,0,0,0,1.7,5c1.57,2.87,4.58,4.87,8.11,6.47a10.58,10.58,0,0,1-5.86-.93,10.38,10.38,0,0,1-4.63-4.18,24.78,24.78,0,0,1-2.2-5.62,53.73,53.73,0,0,1-1.22-5.68c-.33-1.9-.57-3.8-.76-5.7s-.34-3.81-.44-5.71-.15-3.81-.17-5.71,0-3.8.08-5.73Z"/>
  </g>
  <g class="cls-35">
    <path class="cls-20" d="M248.81,771.46a68.22,68.22,0,0,0,8.4.67,74.57,74.57,0,0,0,8.33-.37c2.77-.28,5.52-.71,8.25-1.21s5.46-1.17,8.09-1.9l.67,2a53.06,53.06,0,0,1-8.33,2.22,59.61,59.61,0,0,1-8.53,1,49.2,49.2,0,0,1-8.58-.32A37.2,37.2,0,0,1,248.81,771.46Z"/>
  </g>
  <g class="cls-35">
    <path class="cls-20" d="M329.82,771.38c2.08.74,4.21,1.42,6.33,2a58.69,58.69,0,0,0,6.44,1.58,32.88,32.88,0,0,0,6.6.23c2.23-.09,4.46-.23,6.68-.44-2.2.39-4.41.71-6.64,1a32.51,32.51,0,0,1-6.78.31,61.66,61.66,0,0,1-6.68-1.13c-2.21-.48-4.38-1-6.57-1.6Z"/>
  </g>
  <g class="cls-35">
    <path class="cls-20" d="M347.43,771.15c2-.11,4-.32,6-.61a47.55,47.55,0,0,0,5.84-1.18c1.87-.52,3.82-1.18,5.76-1.72s3.88-1.13,5.82-1.67l.47,2q-2.9.75-5.82,1.44c-2,.47-3.88.91-5.92,1.33a40.18,40.18,0,0,1-6.08.63A42.3,42.3,0,0,1,347.43,771.15Z"/>
  </g>
  <g class="cls-35">
    <path class="cls-20" d="M324.63,679.44c1,.78,2,1.61,3,2.4s2,1.6,3.08,2.37c2.07,1.59,4.22,3.11,6.38,4.78a21.25,21.25,0,0,1-3.92-1.15,29.56,29.56,0,0,1-3.68-1.76,26,26,0,0,1-3.41-2.28,18,18,0,0,1-3-2.91Z"/>
  </g>
  <g class="cls-35">
    <path class="cls-20" d="M341.53,553.87l4.41,3.94a38.21,38.21,0,0,0,4.49,3.49,53.63,53.63,0,0,0,5,2.75c1.74.85,3.52,1.68,5.3,2.6a25.36,25.36,0,0,1-11.45-3.6,20.7,20.7,0,0,1-4.52-4.12A22.66,22.66,0,0,1,341.53,553.87Z"/>
  </g>
  <g class="cls-35">
    <path class="cls-20" d="M348.65,507.41a65.44,65.44,0,0,0,6.84,8.15,31.26,31.26,0,0,0,8.38,6.17,82.28,82.28,0,0,0,9.9,3.94c3.4,1.13,6.84,2.19,10.31,3.25a73.39,73.39,0,0,1-10.72-1.81A55.07,55.07,0,0,1,363,523.59a26.45,26.45,0,0,1-4.79-2.92,33.93,33.93,0,0,1-4.07-3.78,39.37,39.37,0,0,1-6.19-9.07Z"/>
  </g>
  <g class="cls-35">
    <path class="cls-20" d="M213.52,521.62l7.44-3.11c2.46-1,4.92-2.08,7.29-3.24a47.57,47.57,0,0,0,6.75-4,69.67,69.67,0,0,0,6.19-4.86l1.2,1.14a37.15,37.15,0,0,1-6.11,5.52,35.73,35.73,0,0,1-7.17,4.07,63,63,0,0,1-7.69,2.67A71,71,0,0,1,213.52,521.62Z"/>
  </g>
  <g class="cls-35">
    <path class="cls-20" d="M235.91,667.52a47.49,47.49,0,0,1,4.06,2.62l4.09,2.8a16,16,0,0,1-2.48-.49,22.62,22.62,0,0,1-2.41-.79,16.54,16.54,0,0,1-4.42-2.42Z"/>
  </g>
  <path class="cls-20" d="M282.24,779.67a25.94,25.94,0,0,0,2.47,6.79,41,41,0,0,1,2.9,7.41,48.61,48.61,0,0,1,1.4,7.79,60.43,60.43,0,0,1,.28,7.86h0l0,.47-.56.29A44.44,44.44,0,0,1,277.12,814a87.34,87.34,0,0,1-12.06,1.29c-7.79.31-15.46,2-23.38,3.36a169.14,169.14,0,0,1-24,2.32,83,83,0,0,1-12.18-.57,49.8,49.8,0,0,1-6.09-1.15,28.61,28.61,0,0,1-3-1,16.19,16.19,0,0,1-1.5-.65c-.26-.12-.51-.25-.76-.39a7.87,7.87,0,0,1-.86-.54l-.74-.55.08-.94h0a37.27,37.27,0,0,1,2.38-8.79,25.53,25.53,0,0,1,4.84-7.73,17,17,0,0,1,3.63-2.92c.68-.42,1.34-.72,2-1.07s1.35-.63,2-.93a74.44,74.44,0,0,1,8.3-2.93c5.59-1.65,11.28-2.88,16.83-4.29,1.37-.36,2.77-.72,4.06-1.16a22,22,0,0,0,3.71-1.65,26.5,26.5,0,0,0,3.43-2.23,23,23,0,0,0,3-2.67l2.51,2.37a30.12,30.12,0,0,1-3.59,2.93,32.85,32.85,0,0,1-3.91,2.34,29,29,0,0,1-4.25,1.71c-1.45.46-2.87.78-4.29,1.12l-8.46,1.87c-2.8.65-5.58,1.34-8.32,2.13a72.51,72.51,0,0,0-8,2.76,28.51,28.51,0,0,0-3.71,1.85,14.21,14.21,0,0,0-3,2.54,17.48,17.48,0,0,0-2.38,3.26,24.6,24.6,0,0,0-1.69,3.73,27.14,27.14,0,0,0-1.1,4,25.2,25.2,0,0,0-.5,4h0l-.67-1.49.42.24.57.27c.4.18.82.35,1.25.5.87.31,1.77.55,2.68.79a45.63,45.63,0,0,0,5.65,1,90.15,90.15,0,0,0,11.64.4,174.6,174.6,0,0,0,23.47-2.28c3.9-.61,7.81-1.34,11.79-1.95a103.36,103.36,0,0,1,12.08-1.19c3.92-.13,7.81-.5,11.69-1a112.4,112.4,0,0,0,11.51-2l-.52.76h0a60,60,0,0,0-.7-7.55,47.3,47.3,0,0,0-1.75-7.32,39,39,0,0,0-3.12-6.79,28.1,28.1,0,0,1-3.18-7.54Z"/>
  <path class="cls-20" d="M334.75,781.22a18.14,18.14,0,0,1-.54,3.79A26,26,0,0,1,333,788.5a49.67,49.67,0,0,0-2.31,6.36,28.85,28.85,0,0,0-.9,6.58,64.63,64.63,0,0,0,.09,6.82h0l-.52-.79a58.31,58.31,0,0,0,9.49,3.24c1.64.39,3.28.73,4.93,1s3.42.44,5.13.73a93.09,93.09,0,0,1,10.24,2.31c3.34.94,6.61,2,9.9,2.72a70.07,70.07,0,0,0,10,1.6,83.45,83.45,0,0,0,10.12.3,56.79,56.79,0,0,0,9.94-1.15,33.65,33.65,0,0,0,4.72-1.35,23,23,0,0,0,2.21-1c.35-.18.7-.35,1-.55s.67-.44.83-.55l-.6,1.18h0a17.94,17.94,0,0,0,0-3.51,20.59,20.59,0,0,0-.63-3.56,19.17,19.17,0,0,0-3.08-6.48,18.59,18.59,0,0,0-5.32-4.82,44.81,44.81,0,0,0-6.79-3.16c-4.73-1.83-9.64-3.27-14.56-5-1.24-.43-2.47-.88-3.71-1.44a13,13,0,0,1-3.62-2.33,28.82,28.82,0,0,1-5-6.47l3-1.61a24.1,24.1,0,0,0,4.09,5.87,8.86,8.86,0,0,0,2.77,1.92c1.08.53,2.25,1,3.42,1.45,4.74,1.82,9.69,3.3,14.53,5.22a50.46,50.46,0,0,1,7.14,3.39,21.34,21.34,0,0,1,6.11,5.37,23.4,23.4,0,0,1,3.77,7.22,28.41,28.41,0,0,1,1,4,24.19,24.19,0,0,1,.36,4.18h0l-.05.73-.55.45a4.1,4.1,0,0,1-.36.28l-.32.22q-.32.21-.63.39c-.41.25-.83.46-1.25.67a24.57,24.57,0,0,1-2.54,1.09,37.38,37.38,0,0,1-5.2,1.48,55.62,55.62,0,0,1-10.57,1.16,85.76,85.76,0,0,1-10.52-.43,74.63,74.63,0,0,1-10.4-1.8c-3.42-.84-6.71-1.92-10-2.88a87.7,87.7,0,0,0-9.89-2.36c-1.68-.31-3.31-.51-5.09-.79a50.3,50.3,0,0,1-5.18-1.14,41.24,41.24,0,0,1-9.81-4.06l-.49-.29,0-.5h0a66.74,66.74,0,0,1-.45-7.06,31.77,31.77,0,0,1,.62-7.21,53.32,53.32,0,0,1,2.09-6.81,16.21,16.21,0,0,0,1.21-6.21Z"/>
  <path class="cls-39" d="M194.53,810.63s16.3,5.48,30.59,3.35,28.3-5.17,38.93-5.78S289,803.63,289,803.63"/>
  <path class="cls-39" d="M328.46,802.8s3.93,3.8,15.7,5.18c13,1.52,24.16,7.91,37.2,7.91S409,811.32,409,811.32"/>
  <path class="cls-20" d="M377.42,815.89a21.9,21.9,0,0,1,1.23-8.49,15.57,15.57,0,0,1,5.05-7.25,11.53,11.53,0,0,1,2-1.16l1-.47,1-.35a33.19,33.19,0,0,1,4.17-1.09,25.54,25.54,0,0,1,4.28-.52,13.87,13.87,0,0,1,4.26.46,31.94,31.94,0,0,0-8.15,1.62c-1.31.43-2.62.85-3.9,1.38l-1,.37-.86.42a9.37,9.37,0,0,0-1.63,1,6.24,6.24,0,0,0-.75.61,8.94,8.94,0,0,0-.71.66,15.27,15.27,0,0,0-1.26,1.51,19.7,19.7,0,0,0-2.08,3.43A41.29,41.29,0,0,0,377.42,815.89Z"/>
  <path class="cls-20" d="M208.42,794.59a17.12,17.12,0,0,1,6.67,1.82,16.28,16.28,0,0,1,3,1.93,14.72,14.72,0,0,1,2.41,2.71,27.94,27.94,0,0,1,3,6.25,30.66,30.66,0,0,1,1.59,6.68c-1.08-2-2.06-4.05-3.07-6a56.78,56.78,0,0,0-3.26-5.73,15.93,15.93,0,0,0-4.51-4.41A40.14,40.14,0,0,0,208.42,794.59Z"/>
  <path class="cls-20" d="M283.75,788.8c-1.28,1.49-2.6,2.88-3.89,4.26-.63.71-1.29,1.38-1.9,2.1a19.83,19.83,0,0,0-1.67,2.09,24.63,24.63,0,0,0-2.24,5l-1.8,5.46a20,20,0,0,1,.24-5.87,15.68,15.68,0,0,1,2.06-5.67,13.94,13.94,0,0,1,2-2.32,26.91,26.91,0,0,1,2.22-1.93A24.76,24.76,0,0,1,283.75,788.8Z"/>
  <path class="cls-20" d="M330.48,788.8a18.16,18.16,0,0,1,3.95,3.52,22.34,22.34,0,0,1,1.6,2.13c.25.37.47.77.7,1.16s.42.84.58,1.26a19,19,0,0,1,1.2,5.22,20.3,20.3,0,0,1-.11,5.28c-.56-1.69-1-3.34-1.47-5a49.63,49.63,0,0,0-1.54-4.74,18.21,18.21,0,0,0-1-2.2c-.38-.74-.82-1.45-1.23-2.19C332.26,791.8,331.36,790.34,330.48,788.8Z"/>
  <path class="cls-40" d="M213.64,790.32a11.37,11.37,0,0,1,3.57,1,15.52,15.52,0,0,1,3.09,1.83,15.3,15.3,0,0,1,2.6,2.49,9.78,9.78,0,0,1,1.84,3.23,19.76,19.76,0,0,1-3.26-1.59,31.62,31.62,0,0,1-2.85-1.93,30.56,30.56,0,0,1-2.63-2.24A16.21,16.21,0,0,1,213.64,790.32Z"/>
  <path class="cls-40" d="M220.65,788.19a13.16,13.16,0,0,1,6.84,3,14.62,14.62,0,0,1,2.58,2.69,9.31,9.31,0,0,1,1.67,3.45,25.92,25.92,0,0,1-3.18-1.89c-1-.67-1.91-1.37-2.81-2.11s-1.78-1.5-2.64-2.32A19,19,0,0,1,220.65,788.19Z"/>
  <path class="cls-40" d="M229.16,787.28a10.74,10.74,0,0,1,3.3,1.06,14.92,14.92,0,0,1,2.79,1.83,13.16,13.16,0,0,1,2.32,2.45,7.71,7.71,0,0,1,1.48,3.18,24.26,24.26,0,0,1-3-1.61,25.63,25.63,0,0,1-2.59-1.89,24.54,24.54,0,0,1-2.34-2.23A13.05,13.05,0,0,1,229.16,787.28Z"/>
  <path class="cls-40" d="M235.27,784.24a11.74,11.74,0,0,1,3.39,1.39,16.85,16.85,0,0,1,2.84,2.13,15.24,15.24,0,0,1,2.31,2.74,7.84,7.84,0,0,1,1.33,3.48c-1.07-.7-2-1.31-2.93-2a32.35,32.35,0,0,1-2.6-2.19,28,28,0,0,1-2.36-2.5A15,15,0,0,1,235.27,784.24Z"/>
  <path class="cls-40" d="M241.37,782.11a10.41,10.41,0,0,1,3.73,1,14.82,14.82,0,0,1,5.75,4.86,9.64,9.64,0,0,1,1.61,3.53,26.13,26.13,0,0,1-3.17-2c-1-.71-1.89-1.45-2.79-2.2s-1.76-1.56-2.63-2.39A23.21,23.21,0,0,1,241.37,782.11Z"/>
  <path class="cls-40" d="M393.55,792.15a39.86,39.86,0,0,1-3.86,2.32c-1.28.69-2.55,1.34-3.84,2s-2.6,1.23-4,1.8a35.77,35.77,0,0,1-4.24,1.52,13.85,13.85,0,0,1,3.13-3.38,20.61,20.61,0,0,1,8.15-3.94A13.67,13.67,0,0,1,393.55,792.15Z"/>
  <path class="cls-40" d="M385.7,789.41a36.13,36.13,0,0,1-4,2.49c-1.33.72-2.63,1.45-4,2.11s-2.65,1.35-4,2-2.74,1.29-4.25,1.91a12.67,12.67,0,0,1,3.05-3.72,20.07,20.07,0,0,1,3.95-2.65,20.88,20.88,0,0,1,4.44-1.67A15.55,15.55,0,0,1,385.7,789.41Z"/>
  <path class="cls-40" d="M376.34,786.37a26.57,26.57,0,0,1-3.15,2.47c-1.05.73-2.1,1.41-3.15,2.07s-2.1,1.32-3.18,2-2.17,1.31-3.39,2a8.56,8.56,0,0,1,2-3.65,14.1,14.1,0,0,1,3.11-2.66,15.46,15.46,0,0,1,3.7-1.69A11.6,11.6,0,0,1,376.34,786.37Z"/>
  <path class="cls-40" d="M372.44,783.33a36.2,36.2,0,0,1-3.94,2.85c-1.33.84-2.66,1.65-4,2.41s-2.73,1.5-4.14,2.21-2.85,1.37-4.43,2a15,15,0,0,1,3.22-3.76,23,23,0,0,1,4-2.81,24.3,24.3,0,0,1,4.46-2A17.19,17.19,0,0,1,372.44,783.33Z"/>
  <path class="cls-40" d="M366.4,780.89a20.51,20.51,0,0,1-3.22,2.32,35.13,35.13,0,0,1-3.37,1.79,30.65,30.65,0,0,1-3.56,1.41,18.21,18.21,0,0,1-3.9.87,13.5,13.5,0,0,1,2.91-2.8,20.15,20.15,0,0,1,3.39-2,19,19,0,0,1,3.72-1.29A12.26,12.26,0,0,1,366.4,780.89Z"/>
  <g class="cls-41">
    <path class="cls-20" d="M247.21,361.36c9.23.71,18.28,1.4,27.3,2.23l1.16.11v1.16l.67,55-1-1,28.2,1-1.06,1h0L301.71,365l0-1.64h1.62l29.7-.29-1,1h0V335.05l1.07,1c-7.26.25-14.5.45-21.76.61s-14.5.27-21.77.21-14.54-.51-21.78-1-14.48-1-21.71-1.69l1.12-1C247.28,342.59,247.27,351.91,247.21,361.36Zm-1.51,1.38c-.27-9.77-.48-19.68-.58-29.52v-1.13l1.13.1c7.2.64,14.43,1.21,21.65,1.69s14.46.87,21.67,1,14.47-.06,21.71-.21,14.49-.36,21.72-.61l1.07,0V364.1h0v1l-1,.05-29.66,1.52h0L305,365l-.44,55.84h0v1.06l-1.06,0-28.2-1-1,0,0-1-1.22-55,1.17,1.27C264.66,365.12,255.08,363.92,245.7,362.74Z"/>
  </g>
  <g class="cls-42">
    <path class="cls-20" d="M243.34,366.37c8.83.8,17.48,1.59,26.14,2.53l1.18.12v1.2l.09,54.48-1.07-1.12,39.85,2.53-.67.65-1.65-55.71,0-1.15h1.1l30.45-2-1.06,1.12.18-39.34,1.16,1.14h0c-8.15.42-16.29.68-24.45.86q-6.1.16-12.23.18c-4.08,0-8.16,0-12.25,0s-8.18-.25-12.26-.48-8.15-.51-12.22-.84l-12.19-1.13c-4.05-.44-8.11-.87-12.15-1.41h0l.52-.49C242.39,340.63,243,353.51,243.34,366.37Zm-1.67,1.54c-.42-13.53-.68-27-.86-40.34v-.51l.53,0h0l24.41,1c8.13.4,16.27.69,24.36.78s16.27-.13,24.41-.15,16.29-.16,24.43-.16h1.17v1.14l-.19,39.35v1.05l-1.06.07-30.45,2h0l1.06-1.15.67,55.72-.68.65-39.9-1.54-1.06,0v-1.09l-.5-54.48,1.18,1.32C260,370.43,250.72,369.17,241.67,367.91Z"/>
  </g>
  <path class="cls-20" d="M377.14,181.12c.91,1.72,1.87,3.47,2.87,5.15a36.87,36.87,0,0,0,3.24,4.79,9.44,9.44,0,0,0,2,1.88,11.18,11.18,0,0,0,2.46,1.26,20.37,20.37,0,0,0,5.76,1.11,13.14,13.14,0,0,1-6.15.28,10.46,10.46,0,0,1-3-1.09,10.68,10.68,0,0,1-2.54-2.05,29.63,29.63,0,0,1-3.68-5,43.7,43.7,0,0,1-2.77-5.46Z"/>
  <path class="cls-20" d="M390.12,201.08a14.21,14.21,0,0,1-5.12,1.37,13.85,13.85,0,0,1-2.73,0l-.69-.11a5.43,5.43,0,0,1-.74-.17,7.17,7.17,0,0,1-1.44-.61,15.22,15.22,0,0,1-4.07-3.77,24.18,24.18,0,0,1-2.77-4.54h0l1.87-.89a40.69,40.69,0,0,1,2.68,7.17,27.93,27.93,0,0,1,.78,3.83,15,15,0,0,1,.14,2,13.72,13.72,0,0,1-.17,2,28.27,28.27,0,0,1-.84,3.79c-.33,1.24-.76,2.43-1.18,3.62a46.65,46.65,0,0,1-3.2,6.88h0a50.47,50.47,0,0,0-1.75-8.11c-.39-1.32-.86-2.61-1.37-3.87a35.23,35.23,0,0,0-1.76-3.66l1.87-.9a37.93,37.93,0,0,1,1.36,4.06c.36,1.37.67,2.75.9,4.14a51,51,0,0,1,.75,8.34h0c.32-2.53.81-5,1.25-7.42s1-4.88,1.22-7.21a14.19,14.19,0,0,0-.08-3.38c-.17-1.15-.4-2.33-.67-3.51-.55-2.36-1.22-4.74-1.86-7.1l1.87-.89h0c1,1.31,2,2.67,3,3.91a17.24,17.24,0,0,0,3.34,3.24,5,5,0,0,0,.88.46,3,3,0,0,0,.5.16,5.25,5.25,0,0,0,.57.13,22.08,22.08,0,0,0,2.37.43C386.67,200.75,388.35,200.88,390.12,201.08Z"/>
  <path class="cls-20" d="M367.47,207.24c.1,1.33.19,2.66.33,4s.27,2.64.46,3.95a47.51,47.51,0,0,0,1.56,7.68,37.07,37.07,0,0,0,3.13,7.08c1.25,2.28,2.65,4.53,4.08,6.68h0l1.06,1.26-1.67.37a7.14,7.14,0,0,1-1.37.13,8.55,8.55,0,0,1-1.24-.13,10.26,10.26,0,0,1-2.33-.69,14.93,14.93,0,0,1-4-2.52,27.86,27.86,0,0,1-5.61-7.11,37.94,37.94,0,0,1-3.61-8.13,24.37,24.37,0,0,1-.87-4.39,13.16,13.16,0,0,1,.2-4.43,30.52,30.52,0,0,0,2.48,8.16,58.87,58.87,0,0,0,4,7.47,30.29,30.29,0,0,0,5.16,6.45,14.81,14.81,0,0,0,3.24,2.27,8.58,8.58,0,0,0,1.78.68c.31.08.61.12.91.17a6.3,6.3,0,0,0,.8,0l-.61,1.63h0A48.82,48.82,0,0,1,371,231a34.37,34.37,0,0,1-3-7.63,31.76,31.76,0,0,1-.66-4c-.14-1.35-.26-2.7-.27-4A52.45,52.45,0,0,1,367.47,207.24Z"/>
  <path class="cls-20" d="M338.75,256.84l4.27,2.58-1.57.88,1.12-15.3h0L346,259.26l-1.95-.28h0a49.74,49.74,0,0,0,2.19-5.46,30,30,0,0,0,1.35-5.64,85.35,85.35,0,0,0,.26-11.87h0l2.06-.12.37,20.65h0c.25-1.67.57-3.32.92-5s.76-3.26,1.08-4.86a28.82,28.82,0,0,0,.46-4.8l.09-4.95h0v-7.24l2.06,7c.34,1.18.67,2.4,1,3.57a27.62,27.62,0,0,0,1.23,3.42,7.24,7.24,0,0,0,.82,1.43c.36.47.8.94,1.19,1.43.8,1,1.62,1.95,2.41,3a12.89,12.89,0,0,1-3.49-1.87,16.45,16.45,0,0,1-1.54-1.27,10,10,0,0,1-1.31-1.75,19.68,19.68,0,0,1-1.56-3.73,23.07,23.07,0,0,1-.82-3.88l2.05-.2h0a47.83,47.83,0,0,1-.06,5.08,21.93,21.93,0,0,1-.78,5.14c-.49,1.64-1,3.22-1.67,4.78a48.93,48.93,0,0,1-2.11,4.6h0L347.87,236l2.07-.12h0c.08,2,.1,4.06.07,6.09s-.12,4.06-.35,6.11a31.12,31.12,0,0,1-1.43,6.06,54.84,54.84,0,0,1-2.29,5.71h0l-1.64,2.92L344,259.6,342.57,245h0l.95,15.31-1.57.88-4.27-2.58Z"/>
  <path class="cls-20" d="M355.64,223.53a74,74,0,0,0,2.4,10.78,110.13,110.13,0,0,0,3.65,10.53q-2.56-5-4.63-10.19a77,77,0,0,1-3.46-10.75Z"/>
</svg>
